<svg width="20" height="21" viewBox="0 0 20 21" fill="none" xmlns="http://www.w3.org/2000/svg">
<path d="M12.025 16.1833C11.8667 16.1833 11.7083 16.125 11.5833 16C11.3417 15.7583 11.3417 15.3583 11.5833 15.1166L16.2 10.5L11.5833 5.88331C11.3417 5.64164 11.3417 5.24164 11.5833 4.99998C11.825 4.75831 12.225 4.75831 12.4667 4.99998L17.525 10.0583C17.7667 10.3 17.7667 10.7 17.525 10.9416L12.4667 16C12.3417 16.125 12.1834 16.1833 12.025 16.1833Z" fill="#344054"/>
<path d="M16.9417 11.125H2.91675C2.57508 11.125 2.29175 10.8417 2.29175 10.5C2.29175 10.1583 2.57508 9.875 2.91675 9.875H16.9417C17.2834 9.875 17.5667 10.1583 17.5667 10.5C17.5667 10.8417 17.2834 11.125 16.9417 11.125Z" fill="#344054"/>
</svg>
