<svg width="20" height="21" viewBox="0 0 20 21" fill="none" xmlns="http://www.w3.org/2000/svg">
<path d="M7.9752 16.1833C7.81686 16.1833 7.65853 16.125 7.53353 16L2.4752 10.9417C2.23353 10.7 2.23353 10.3 2.4752 10.0583L7.53353 5C7.7752 4.75833 8.1752 4.75833 8.41686 5C8.65853 5.24167 8.65853 5.64167 8.41686 5.88333L3.8002 10.5L8.41686 15.1167C8.65853 15.3583 8.65853 15.7583 8.41686 16C8.3002 16.125 8.13353 16.1833 7.9752 16.1833Z" fill="#344054"/>
<path d="M17.0831 11.125H3.05811C2.71644 11.125 2.43311 10.8417 2.43311 10.5C2.43311 10.1583 2.71644 9.875 3.05811 9.875H17.0831C17.4248 9.875 17.7081 10.1583 17.7081 10.5C17.7081 10.8417 17.4248 11.125 17.0831 11.125Z" fill="#344054"/>
</svg>
