<svg width="145" height="40" viewBox="0 0 145 40" fill="none" xmlns="http://www.w3.org/2000/svg">
<g clip-path="url(#clip0_3356_2835)">
<path d="M68.4939 27.8465C68.8019 27.8465 69.0672 27.8117 69.2898 27.7421C69.5124 27.6726 69.6942 27.5756 69.8352 27.4511C69.9799 27.3229 70.0856 27.1728 70.1524 27.0007C70.2192 26.825 70.2526 26.6327 70.2526 26.424C70.2526 26.0176 70.106 25.6972 69.8129 25.4629C69.5198 25.2249 69.0801 25.1059 68.4939 25.1059H66.7687V27.8465L68.4939 27.8465ZM66.7687 21.6623V24.348H68.1934C68.4976 24.348 68.7611 24.315 68.9837 24.2492C69.21 24.1833 69.3955 24.0917 69.5402 23.9745C69.6886 23.8574 69.7981 23.7164 69.8686 23.5516C69.9391 23.3832 69.9743 23.2001 69.9743 23.0024C69.9743 22.5374 69.8333 22.1987 69.5513 21.9864C69.2694 21.7704 68.8316 21.6623 68.2379 21.6623L66.7687 21.6623ZM68.2379 20.822C68.7277 20.822 69.1488 20.8696 69.5013 20.9648C69.8574 21.06 70.1487 21.1955 70.375 21.3712C70.605 21.547 70.7739 21.763 70.8815 22.0193C70.989 22.2719 71.0428 22.5575 71.0428 22.8761C71.0428 23.0701 71.0113 23.2569 70.9482 23.4363C70.8889 23.612 70.798 23.7768 70.6755 23.9306C70.5531 24.0843 70.3973 24.2235 70.2081 24.348C70.0225 24.4688 69.8036 24.5677 69.5513 24.6445C70.1376 24.7544 70.5772 24.9613 70.8703 25.2652C71.1671 25.5654 71.3155 25.9608 71.3155 26.4515C71.3155 26.7847 71.2525 27.0886 71.1263 27.3632C71.0039 27.6378 70.8221 27.8739 70.5809 28.0716C70.3435 28.2694 70.0504 28.4231 69.7016 28.533C69.3528 28.6392 68.9559 28.6923 68.5106 28.6923H65.6946V20.822H68.2379Z" fill="#00A39D"/>
<path d="M77.1703 25.7704L75.9181 22.5685C75.881 22.4733 75.842 22.3635 75.8012 22.239C75.7604 22.1109 75.7214 21.9754 75.6843 21.8326C75.6064 22.1292 75.5267 22.3763 75.445 22.574L74.1928 25.7704H77.1703ZM79.4187 28.6923H78.5839C78.4874 28.6923 78.4095 28.6685 78.3501 28.6209C78.2908 28.5733 78.2462 28.5129 78.2166 28.4396L77.4708 26.5394H73.8923L73.1466 28.4396C73.1243 28.5055 73.0816 28.5641 73.0185 28.6154C72.9555 28.6666 72.8776 28.6923 72.7848 28.6923H71.95L75.1389 20.822H76.2297L79.4187 28.6923Z" fill="#00A39D"/>
<path d="M87.0876 20.8221V28.6923H86.5478C86.4624 28.6923 86.3901 28.6777 86.3307 28.6484C86.2751 28.6191 86.2194 28.5697 86.1638 28.5001L81.5501 22.5686C81.5576 22.6601 81.5631 22.7498 81.5668 22.8377C81.5705 22.9256 81.5724 23.0079 81.5724 23.0848V28.6923H80.6263V20.8221H81.1828C81.231 20.8221 81.2719 20.8257 81.3053 20.8331C81.3387 20.8366 81.3683 20.8457 81.3943 20.8605C81.4203 20.8715 81.4462 20.8898 81.4722 20.9154C81.4982 20.9374 81.526 20.9667 81.5557 21.0033L86.1693 26.9293C86.1619 26.8341 86.1545 26.7426 86.1471 26.6547C86.1434 26.5631 86.1415 26.4771 86.1415 26.3965V20.822L87.0876 20.8221Z" fill="#00A39D"/>
<path d="M90.3544 24.2712H90.7607C90.9017 24.2712 91.0149 24.2547 91.1002 24.2218C91.1855 24.1852 91.2634 24.1248 91.3339 24.0405L93.9886 21.0748C94.0628 20.9796 94.1407 20.9137 94.2223 20.877C94.304 20.8404 94.4041 20.8221 94.5229 20.8221H95.4356L92.3969 24.2108C92.3227 24.2987 92.2504 24.3719 92.1799 24.4305C92.1131 24.4854 92.0407 24.5311 91.9628 24.5678C92.063 24.6007 92.1539 24.6502 92.2355 24.7161C92.3171 24.7783 92.3969 24.8607 92.4748 24.9632L95.6471 28.6924H94.7121C94.6416 28.6924 94.5804 28.6887 94.5284 28.6814C94.4802 28.6704 94.4375 28.6558 94.4004 28.6375C94.3633 28.6155 94.3299 28.5917 94.3002 28.5661C94.2743 28.5368 94.2483 28.5039 94.2223 28.4673L91.4731 25.3423C91.3989 25.2507 91.3191 25.1866 91.2338 25.15C91.1484 25.1098 91.0186 25.0896 90.8442 25.0896H90.3544V28.6925H89.2803V20.8222H90.3544V24.2712Z" fill="#00A39D"/>
<path d="M103.895 22.0523C103.861 22.1072 103.824 22.1493 103.784 22.1786C103.746 22.2043 103.7 22.2171 103.644 22.2171C103.581 22.2171 103.507 22.186 103.422 22.1237C103.336 22.0615 103.229 21.9938 103.099 21.9205C102.973 21.8436 102.819 21.7741 102.637 21.7118C102.459 21.6496 102.242 21.6185 101.986 21.6185C101.745 21.6185 101.531 21.6514 101.346 21.7173C101.164 21.7795 101.01 21.8656 100.884 21.9754C100.762 22.0853 100.669 22.2153 100.606 22.3654C100.543 22.5118 100.511 22.6711 100.511 22.8432C100.511 23.0629 100.565 23.246 100.673 23.3924C100.784 23.5352 100.929 23.6579 101.107 23.7604C101.288 23.8629 101.492 23.9526 101.719 24.0295C101.949 24.1027 102.183 24.1796 102.42 24.2602C102.661 24.3407 102.895 24.4323 103.121 24.5348C103.351 24.6336 103.555 24.76 103.733 24.9137C103.915 25.0675 104.06 25.2561 104.168 25.4794C104.279 25.7028 104.334 25.9774 104.334 26.3032C104.334 26.6474 104.275 26.9715 104.156 27.2754C104.038 27.5756 103.863 27.8374 103.633 28.0607C103.407 28.2841 103.127 28.4598 102.793 28.588C102.463 28.7161 102.086 28.7802 101.663 28.7802C101.144 28.7802 100.673 28.6887 100.25 28.5056C99.8266 28.3189 99.4648 28.0681 99.1643 27.7532L99.476 27.2479C99.5056 27.2076 99.5409 27.1747 99.5817 27.1491C99.6262 27.1198 99.6745 27.1051 99.7264 27.1051C99.7746 27.1051 99.8284 27.1253 99.8878 27.1655C99.9509 27.2021 100.021 27.2497 100.099 27.3083C100.177 27.3669 100.266 27.431 100.366 27.5006C100.467 27.5701 100.58 27.6342 100.706 27.6928C100.836 27.7513 100.982 27.8008 101.146 27.8411C101.309 27.8777 101.492 27.896 101.697 27.896C101.953 27.896 102.181 27.8612 102.381 27.7917C102.581 27.7221 102.75 27.6251 102.887 27.5006C103.028 27.3724 103.136 27.2205 103.21 27.0447C103.284 26.869 103.322 26.6731 103.322 26.4571C103.322 26.2191 103.266 26.025 103.155 25.8749C103.047 25.7211 102.904 25.593 102.726 25.4904C102.548 25.3879 102.344 25.3019 102.114 25.2323C101.884 25.1591 101.65 25.0859 101.413 25.0126C101.175 24.9357 100.941 24.8479 100.711 24.749C100.481 24.6501 100.277 24.522 100.099 24.3645C99.9212 24.2071 99.7765 24.0112 99.6652 23.7769C99.5576 23.5389 99.5038 23.246 99.5038 22.8982C99.5038 22.6199 99.5576 22.3508 99.6652 22.0908C99.7765 21.8308 99.936 21.6002 100.144 21.3988C100.355 21.1974 100.613 21.0363 100.917 20.9155C101.225 20.7947 101.578 20.7343 101.975 20.7343C102.42 20.7343 102.824 20.8038 103.188 20.9429C103.555 21.0821 103.878 21.2835 104.156 21.5471L103.895 22.0523Z" fill="#00A39D"/>
<path d="M108.842 25.5562V28.6923H107.763V25.5562L104.841 20.822H105.787C105.884 20.822 105.96 20.8458 106.015 20.8934C106.071 20.9373 106.119 20.9959 106.16 21.0691L107.985 24.1283C108.052 24.2564 108.113 24.3772 108.169 24.4907C108.225 24.6006 108.273 24.7123 108.314 24.8258C108.355 24.7123 108.401 24.6006 108.453 24.4907C108.505 24.3772 108.562 24.2564 108.625 24.1283L110.445 21.0691C110.479 21.0069 110.525 20.9502 110.584 20.8989C110.644 20.8476 110.72 20.822 110.813 20.822H111.764L108.842 25.5562Z" fill="#00A39D"/>
<path d="M116.406 25.7704L115.153 22.5685C115.116 22.4733 115.077 22.3635 115.037 22.239C114.996 22.1109 114.957 21.9754 114.92 21.8326C114.842 22.1292 114.762 22.3763 114.68 22.574L113.428 25.7704H116.406ZM118.654 28.6923H117.819C117.723 28.6923 117.645 28.6685 117.585 28.6209C117.526 28.5733 117.482 28.5129 117.452 28.4396L116.706 26.5394H113.128L112.382 28.4396C112.36 28.5055 112.317 28.5641 112.254 28.6154C112.191 28.6666 112.113 28.6923 112.02 28.6923H111.185L114.374 20.822H115.465L118.654 28.6923Z" fill="#00A39D"/>
<path d="M122.071 24.6337C122.383 24.6337 122.657 24.5971 122.895 24.5238C123.136 24.4469 123.336 24.3408 123.496 24.2053C123.659 24.0661 123.781 23.9014 123.863 23.711C123.945 23.5206 123.986 23.3101 123.986 23.0794C123.986 22.6107 123.83 22.2574 123.518 22.0194C123.206 21.7814 122.739 21.6624 122.116 21.6624H120.936V24.6337H122.071ZM125.755 28.6924H124.798C124.601 28.6924 124.457 28.6173 124.364 28.4672L122.294 25.6552C122.231 25.5673 122.162 25.5051 122.088 25.4685C122.017 25.4282 121.906 25.4081 121.754 25.4081H120.936V28.6924H119.862V20.8221H122.116C122.62 20.8221 123.056 20.8734 123.423 20.9759C123.791 21.0748 124.093 21.2194 124.331 21.4098C124.572 21.6002 124.75 21.8309 124.865 22.1018C124.98 22.3691 125.037 22.6693 125.037 23.0025C125.037 23.2808 124.993 23.5408 124.904 23.7824C124.815 24.0241 124.685 24.2419 124.514 24.436C124.347 24.6264 124.141 24.7893 123.896 24.9248C123.655 25.0602 123.381 25.1628 123.073 25.2323C123.21 25.3092 123.329 25.4209 123.429 25.5674L125.755 28.6924Z" fill="#00A39D"/>
<path d="M128.071 28.6923H126.991V20.822H128.071V28.6923Z" fill="#00A39D"/>
<path d="M134.498 25.7704L133.246 22.5685C133.209 22.4733 133.17 22.3635 133.129 22.239C133.089 22.1109 133.05 21.9754 133.012 21.8326C132.935 22.1292 132.855 22.3763 132.773 22.574L131.521 25.7704H134.498ZM136.747 28.6923H135.912C135.816 28.6923 135.738 28.6685 135.678 28.6209C135.619 28.5733 135.574 28.5129 135.545 28.4396L134.799 26.5394H131.22L130.475 28.4396C130.452 28.5055 130.41 28.5641 130.347 28.6154C130.284 28.6666 130.206 28.6923 130.113 28.6923H129.278L132.467 20.822H133.558L136.747 28.6923Z" fill="#00A39D"/>
<path d="M144.416 20.822V28.6923H143.336V25.1114H139.034V28.6923H137.954V20.822H139.034V24.3315H143.336V20.822H144.416Z" fill="#00A39D"/>
<path d="M66.7743 39.6766H65.6946V31.8064H66.7743V39.6766Z" fill="#00A39D"/>
<path d="M75.4283 31.8063V39.6766H74.8885C74.8031 39.6766 74.7308 39.6619 74.6714 39.6326C74.6158 39.6034 74.5601 39.5539 74.5045 39.4844L69.8908 33.5528C69.8982 33.6444 69.9038 33.7341 69.9075 33.822C69.9112 33.9098 69.9131 33.9922 69.9131 34.0691V39.6766H68.967V31.8063H69.5235C69.5717 31.8063 69.6126 31.81 69.6459 31.8173C69.6793 31.8208 69.709 31.83 69.735 31.8448C69.761 31.8557 69.7869 31.874 69.8129 31.8997C69.8389 31.9216 69.8667 31.9509 69.8964 31.9875L74.51 37.9135C74.5026 37.8183 74.4952 37.7268 74.4878 37.6389C74.4841 37.5474 74.4822 37.4613 74.4822 37.3808V31.8063L75.4283 31.8063Z" fill="#00A39D"/>
<path d="M84.5332 35.7443C84.5332 36.3338 84.4385 36.8702 84.2493 37.3535C84.0601 37.8368 83.793 38.2505 83.4479 38.5947C83.1029 38.9389 82.6873 39.2062 82.2013 39.3965C81.719 39.5833 81.1847 39.6766 80.5985 39.6766H77.621V31.8064H80.5985C81.1847 31.8064 81.719 31.9016 82.2013 32.092C82.6873 32.2787 83.1029 32.546 83.4479 32.8938C83.793 33.238 84.0601 33.6518 84.2493 34.1351C84.4385 34.6184 84.5332 35.1548 84.5332 35.7443ZM83.4257 35.7443C83.4257 35.261 83.3589 34.8289 83.2253 34.4481C83.0917 34.0673 82.9025 33.7451 82.6576 33.4815C82.4128 33.2179 82.116 33.0165 81.7672 32.8774C81.4184 32.7382 81.0289 32.6687 80.5985 32.6687H78.7007V38.8144H80.5985C81.0289 38.8144 81.4184 38.7448 81.7672 38.6057C82.116 38.4665 82.4128 38.267 82.6576 38.007C82.9025 37.7434 83.0917 37.4212 83.2253 37.0404C83.3589 36.6596 83.4257 36.2276 83.4257 35.7443Z" fill="#00A39D"/>
<path d="M93.6102 35.7442C93.6102 36.3337 93.5156 36.8756 93.3264 37.3699C93.1371 37.8605 92.87 38.2834 92.525 38.6386C92.1799 38.9938 91.7644 39.2702 91.2783 39.4679C90.796 39.662 90.2617 39.759 89.6755 39.759C89.0893 39.759 88.555 39.662 88.0727 39.4679C87.5904 39.2702 87.1767 38.9938 86.8316 38.6386C86.4866 38.2834 86.2195 37.8605 86.0302 37.3699C85.841 36.8756 85.7464 36.3337 85.7464 35.7442C85.7464 35.1548 85.841 34.6147 86.0302 34.1241C86.2195 33.6298 86.4866 33.205 86.8316 32.8499C87.1767 32.4911 87.5904 32.2128 88.0727 32.0151C88.555 31.8174 89.0893 31.7185 89.6755 31.7185C90.2617 31.7185 90.796 31.8174 91.2783 32.0151C91.7644 32.2128 92.1799 32.4911 92.525 32.8499C92.87 33.205 93.1371 33.6298 93.3264 34.1241C93.5156 34.6147 93.6102 35.1548 93.6102 35.7442ZM92.5027 35.7442C92.5027 35.2609 92.4359 34.8271 92.3023 34.4426C92.1688 34.0582 91.9796 33.7341 91.7347 33.4705C91.4898 33.2032 91.193 32.9982 90.8442 32.8554C90.4955 32.7126 90.1059 32.6412 89.6755 32.6412C89.2488 32.6412 88.8611 32.7126 88.5124 32.8554C88.1636 32.9982 87.8649 33.2032 87.6163 33.4705C87.3715 33.7341 87.1822 34.0582 87.0487 34.4426C86.9151 34.8271 86.8483 35.2609 86.8483 35.7442C86.8483 36.2276 86.9151 36.6614 87.0487 37.0459C87.1822 37.4267 87.3715 37.7507 87.6163 38.018C87.8649 38.2816 88.1636 38.4848 88.5124 38.6276C88.8611 38.7668 89.2488 38.8363 89.6755 38.8363C90.1059 38.8363 90.4955 38.7668 90.8442 38.6276C91.193 38.4848 91.4898 38.2816 91.7347 38.018C91.9796 37.7507 92.1688 37.4267 92.3023 37.0459C92.4359 36.6614 92.5027 36.2276 92.5027 35.7442Z" fill="#00A39D"/>
<path d="M101.769 31.8063V39.6766H101.229C101.144 39.6766 101.071 39.6619 101.012 39.6326C100.956 39.6034 100.901 39.5539 100.845 39.4844L96.2314 33.5528C96.2388 33.6444 96.2444 33.7341 96.2481 33.822C96.2518 33.9098 96.2537 33.9922 96.2537 34.0691V39.6766H95.3076V31.8063H95.8641C95.9123 31.8063 95.9531 31.81 95.9865 31.8173C96.0199 31.8208 96.0496 31.83 96.0756 31.8448C96.1015 31.8557 96.1275 31.874 96.1535 31.8997C96.1795 31.9216 96.2073 31.9509 96.237 31.9875L100.851 37.9135C100.843 37.8183 100.836 37.7268 100.828 37.6389C100.825 37.5474 100.823 37.4613 100.823 37.3808V31.8063L101.769 31.8063Z" fill="#00A39D"/>
<path d="M108.881 38.8089L108.876 39.6766H103.962V31.8064H108.876V32.6742H105.041V35.2884H108.147V36.1232H105.041V38.8089H108.881Z" fill="#00A39D"/>
<path d="M114.625 33.0366C114.591 33.0915 114.554 33.1336 114.514 33.1629C114.476 33.1885 114.43 33.2013 114.374 33.2013C114.311 33.2013 114.237 33.1702 114.152 33.108C114.066 33.0458 113.959 32.978 113.829 32.9048C113.703 32.8279 113.549 32.7583 113.367 32.6961C113.189 32.6339 112.972 32.6028 112.716 32.6028C112.475 32.6028 112.261 32.6357 112.076 32.7016C111.894 32.7638 111.74 32.8498 111.614 32.9597C111.492 33.0695 111.399 33.1995 111.336 33.3496C111.273 33.4961 111.241 33.6554 111.241 33.8275C111.241 34.0471 111.295 34.2302 111.402 34.3767C111.514 34.5195 111.658 34.6421 111.837 34.7446C112.018 34.8472 112.222 34.9369 112.449 35.0138C112.679 35.087 112.913 35.1639 113.15 35.2444C113.391 35.325 113.625 35.4165 113.851 35.519C114.081 35.6179 114.285 35.7442 114.463 35.898C114.645 36.0518 114.79 36.2403 114.898 36.4637C115.009 36.687 115.064 36.9617 115.064 37.2875C115.064 37.6317 115.005 37.9557 114.886 38.2596C114.768 38.5598 114.593 38.8216 114.363 39.045C114.137 39.2683 113.857 39.4441 113.523 39.5722C113.193 39.7004 112.816 39.7645 112.393 39.7645C111.874 39.7645 111.402 39.6729 110.98 39.4899C110.557 39.3031 110.195 39.0523 109.894 38.7374L110.206 38.2322C110.236 38.1919 110.271 38.159 110.312 38.1333C110.356 38.1041 110.404 38.0894 110.456 38.0894C110.505 38.0894 110.558 38.1095 110.618 38.1498C110.681 38.1864 110.751 38.234 110.829 38.2926C110.907 38.3512 110.996 38.4152 111.096 38.4848C111.197 38.5544 111.31 38.6184 111.436 38.677C111.566 38.7356 111.712 38.785 111.876 38.8253C112.039 38.8619 112.222 38.8802 112.426 38.8802C112.683 38.8802 112.911 38.8455 113.111 38.7759C113.311 38.7064 113.48 38.6093 113.617 38.4848C113.758 38.3567 113.866 38.2047 113.94 38.029C114.014 37.8532 114.052 37.6573 114.052 37.4413C114.052 37.2033 113.996 37.0093 113.885 36.8591C113.777 36.7054 113.634 36.5772 113.456 36.4747C113.278 36.3722 113.074 36.2861 112.844 36.2166C112.614 36.1433 112.38 36.0701 112.143 35.9969C111.905 35.92 111.671 35.8321 111.441 35.7333C111.211 35.6344 111.007 35.5063 110.829 35.3488C110.651 35.1914 110.506 34.9955 110.395 34.7612C110.288 34.5232 110.234 34.2303 110.234 33.8824C110.234 33.6041 110.288 33.335 110.395 33.0751C110.506 32.8151 110.666 32.5844 110.874 32.3831C111.085 32.1817 111.343 32.0206 111.647 31.8998C111.955 31.7789 112.308 31.7185 112.705 31.7185C113.15 31.7185 113.554 31.7881 113.918 31.9272C114.285 32.0663 114.608 32.2677 114.886 32.5314L114.625 33.0366Z" fill="#00A39D"/>
<path d="M117.819 39.6766H116.74V31.8064H117.819V39.6766Z" fill="#00A39D"/>
<path d="M124.247 36.7548L122.995 33.5529C122.958 33.4577 122.919 33.3479 122.878 33.2234C122.837 33.0952 122.798 32.9598 122.761 32.817C122.683 33.1135 122.604 33.3607 122.522 33.5584L121.27 36.7548H124.247ZM126.496 39.6766H125.661C125.564 39.6766 125.486 39.6528 125.427 39.6053C125.368 39.5577 125.323 39.4973 125.293 39.424L124.548 37.5238H120.969L120.223 39.424C120.201 39.4899 120.159 39.5485 120.095 39.5998C120.032 39.651 119.954 39.6766 119.862 39.6766H119.027L122.216 31.8064H123.307L126.496 39.6766Z" fill="#00A39D"/>
<path d="M11.4188 34.6792C12.2895 34.6792 12.9977 34.5679 13.5436 34.3452C14.1024 34.1226 14.5377 33.8344 14.8496 33.4808C15.1615 33.1271 15.376 32.7277 15.4929 32.2823C15.6099 31.837 15.6684 31.3851 15.6684 30.9267C15.6684 30.4028 15.5969 29.9313 15.4539 29.5122C15.324 29.093 15.0901 28.7394 14.7522 28.4512C14.4273 28.1631 13.9919 27.9404 13.4461 27.7832C12.9003 27.6261 12.2115 27.5475 11.3798 27.5475H6.77928V34.6792H11.4188ZM6.77928 16.0346V23.1073H10.2102C10.9379 23.1073 11.5942 23.055 12.179 22.9502C12.7638 22.8454 13.2577 22.662 13.6605 22.4001C14.0764 22.1381 14.3883 21.7779 14.5962 21.3195C14.8172 20.8611 14.9276 20.2848 14.9276 19.5906C14.9276 18.9095 14.8431 18.3463 14.6742 17.901C14.5053 17.4426 14.2453 17.0758 13.8945 16.8008C13.5436 16.5257 13.0952 16.3292 12.5494 16.2114C12.0166 16.0935 11.3798 16.0346 10.639 16.0346H6.77928ZM10.639 11.064C12.6014 11.064 14.2713 11.2473 15.6489 11.6141C17.0264 11.9808 18.1506 12.4982 19.0213 13.1662C19.892 13.8341 20.5223 14.6462 20.9122 15.6023C21.315 16.5585 21.5165 17.6259 21.5165 18.8047C21.5165 19.4465 21.4255 20.0687 21.2436 20.6712C21.0616 21.2605 20.7757 21.8172 20.3858 22.3411C19.996 22.8519 19.4956 23.3235 18.8848 23.7557C18.274 24.1879 17.5398 24.5612 16.682 24.8755C18.5534 25.334 19.9375 26.074 20.8342 27.0956C21.7309 28.1172 22.1793 29.4401 22.1793 31.0642C22.1793 32.2823 21.9453 33.4153 21.4775 34.4631C21.0096 35.5109 20.3209 36.4278 19.4112 37.2136C18.5145 37.9864 17.4033 38.5955 16.0777 39.0408C14.7522 39.473 13.2382 39.6891 11.5357 39.6891H0.19043V11.064H10.639Z" fill="#00A39D"/>
<path d="M42.4193 16.9023C42.2243 17.2163 42.0164 17.4518 41.7955 17.6088C41.5875 17.7658 41.3146 17.8443 40.9767 17.8443C40.6778 17.8443 40.3529 17.7527 40.0021 17.5695C39.6642 17.3733 39.2743 17.1574 38.8324 16.9219C38.4036 16.6864 37.9097 16.4771 37.3509 16.294C36.7921 16.0977 36.1553 15.9996 35.4405 15.9996C34.206 15.9996 33.2833 16.2678 32.6725 16.8042C32.0746 17.3275 31.7757 18.0405 31.7757 18.9432C31.7757 19.5189 31.9577 19.9964 32.3216 20.3758C32.6854 20.7552 33.1598 21.0823 33.7446 21.357C34.3424 21.6317 35.0182 21.8868 35.7719 22.1223C36.5387 22.3447 37.3184 22.5999 38.1112 22.8877C38.9039 23.1624 39.6772 23.4895 40.4309 23.8689C41.1977 24.2483 41.8734 24.7324 42.4583 25.3211C43.0561 25.9098 43.5369 26.6294 43.9008 27.4797C44.2647 28.3171 44.4466 29.331 44.4466 30.5215C44.4466 31.8429 44.2192 33.0792 43.7643 34.2305C43.3095 35.3818 42.6467 36.3891 41.776 37.2526C40.9183 38.103 39.8526 38.7767 38.579 39.2739C37.3184 39.758 35.8824 40 34.2709 40C33.3872 40 32.484 39.9084 31.5613 39.7252C30.6516 39.5421 29.7679 39.287 28.9102 38.9599C28.0525 38.6197 27.2467 38.2207 26.493 37.7628C25.7392 37.3049 25.0829 36.7947 24.5241 36.2321L26.4735 33.1315C26.6294 32.9091 26.8309 32.726 27.0778 32.582C27.3377 32.425 27.6171 32.3465 27.916 32.3465C28.3059 32.3465 28.6957 32.4708 29.0856 32.7194C29.4885 32.968 29.9368 33.2427 30.4307 33.5436C30.9375 33.8445 31.5158 34.1193 32.1656 34.3678C32.8154 34.6164 33.5822 34.7407 34.4659 34.7407C35.6615 34.7407 36.5907 34.479 37.2535 33.9557C37.9162 33.4193 38.2476 32.5755 38.2476 31.4242C38.2476 30.757 38.0657 30.214 37.7018 29.7954C37.3379 29.3767 36.8571 29.0301 36.2593 28.7553C35.6745 28.4806 35.0052 28.2386 34.2514 28.0292C33.4977 27.8199 32.7244 27.5909 31.9317 27.3424C31.139 27.0807 30.3657 26.7667 29.6119 26.4004C28.8582 26.021 28.1824 25.5304 27.5846 24.9286C26.9998 24.3137 26.5255 23.5549 26.1616 22.6522C25.7977 21.7364 25.6158 20.6113 25.6158 19.2768C25.6158 18.204 25.8302 17.1574 26.259 16.1369C26.6879 15.1165 27.3182 14.2072 28.1499 13.4092C28.9817 12.6111 30.0018 11.9766 31.2104 11.5056C32.419 11.0216 33.8031 10.7795 35.3626 10.7795C36.2333 10.7795 37.078 10.8515 37.8967 10.9954C38.7285 11.1262 39.5147 11.329 40.2555 11.6038C40.9962 11.8654 41.685 12.1859 42.3218 12.5654C42.9716 12.9317 43.5499 13.3503 44.0567 13.8213L42.4193 16.9023Z" fill="#00A39D"/>
<path fill-rule="evenodd" clip-rule="evenodd" d="M65.969 9.87992C60.9099 9.38865 59.1311 12.1657 58.1387 13.5393C56.873 8.04791 54.7326 8.4809 52.4427 7.09757C55.7523 5.18249 56.678 2.20513 56.5869 0C59.8287 2.36949 62.0891 2.11524 64.8885 1.3469C63.4955 5.49076 64.375 6.66038 65.969 9.87992Z" fill="#F8AD3C"/>
<path d="M55.3882 39.7009H48.5364V10.4279C52.824 11.007 55.3949 14.5422 55.3882 18.284V39.7009Z" fill="#00A39D"/>
</g>
<defs>
<clipPath id="clip0_3356_2835">
<rect width="144.225" height="40" fill="white" transform="translate(0.19043)"/>
</clipPath>
</defs>
</svg>
