<svg width="64" height="64" viewBox="0 0 64 64" fill="none" xmlns="http://www.w3.org/2000/svg">
<path d="M13.3334 21.3335C8.90671 21.3335 5.33337 24.9068 5.33337 29.3335V50.6668C5.33337 55.0935 8.90671 58.6668 13.3334 58.6668H17.3334C20.2667 58.6668 22.6667 56.2668 22.6667 53.3335V26.6668C22.6667 23.7335 20.2667 21.3335 17.3334 21.3335H13.3334ZM16 45.3335C16 46.4268 15.0934 47.3335 14 47.3335C12.9067 47.3335 12 46.4268 12 45.3335V34.6668C12 33.5735 12.9067 32.6668 14 32.6668C15.0934 32.6668 16 33.5735 16 34.6668V45.3335Z" fill="#091E6F"/>
<path d="M50.6666 5.3335H34.6666C30.24 5.3335 26.6666 8.90683 26.6666 13.3335V50.6668C26.6666 55.0935 30.24 58.6668 34.6666 58.6668H36C36.7466 58.6668 37.3333 58.0802 37.3333 57.3335V48.0002C37.3333 46.5335 38.5333 45.3335 40 45.3335H45.3333C46.8 45.3335 48 46.5335 48 48.0002V57.3335C48 58.0802 48.5866 58.6668 49.3333 58.6668H50.6666C55.0933 58.6668 58.6666 55.0935 58.6666 50.6668V13.3335C58.6666 8.90683 55.0933 5.3335 50.6666 5.3335ZM39.3333 34.6668C39.3333 35.7602 38.4266 36.6668 37.3333 36.6668C36.24 36.6668 35.3333 35.7602 35.3333 34.6668V21.3335C35.3333 20.2402 36.24 19.3335 37.3333 19.3335C38.4266 19.3335 39.3333 20.2402 39.3333 21.3335V34.6668ZM50 34.6668C50 35.7602 49.0933 36.6668 48 36.6668C46.9066 36.6668 46 35.7602 46 34.6668V21.3335C46 20.2402 46.9066 19.3335 48 19.3335C49.0933 19.3335 50 20.2402 50 21.3335V34.6668Z" fill="#091E6F"/>
</svg>
