<svg width="64" height="64" viewBox="0 0 64 64" fill="none" xmlns="http://www.w3.org/2000/svg">
<path d="M58.6666 56.6665H5.33331C4.23998 56.6665 3.33331 57.5732 3.33331 58.6665C3.33331 59.7598 4.23998 60.6665 5.33331 60.6665H58.6666C59.76 60.6665 60.6666 59.7598 60.6666 58.6665C60.6666 57.5732 59.76 56.6665 58.6666 56.6665Z" fill="white"/>
<path d="M45.3333 5.3335H18.6667C10.6667 5.3335 8 10.1068 8 16.0002V58.6668H56V16.0002C56 10.1068 53.3333 5.3335 45.3333 5.3335ZM26.6667 46.0002H18.6667C17.5733 46.0002 16.6667 45.0935 16.6667 44.0002C16.6667 42.9068 17.5733 42.0002 18.6667 42.0002H26.6667C27.76 42.0002 28.6667 42.9068 28.6667 44.0002C28.6667 45.0935 27.76 46.0002 26.6667 46.0002ZM26.6667 34.0002H18.6667C17.5733 34.0002 16.6667 33.0935 16.6667 32.0002C16.6667 30.9068 17.5733 30.0002 18.6667 30.0002H26.6667C27.76 30.0002 28.6667 30.9068 28.6667 32.0002C28.6667 33.0935 27.76 34.0002 26.6667 34.0002ZM26.6667 22.0002H18.6667C17.5733 22.0002 16.6667 21.0935 16.6667 20.0002C16.6667 18.9068 17.5733 18.0002 18.6667 18.0002H26.6667C27.76 18.0002 28.6667 18.9068 28.6667 20.0002C28.6667 21.0935 27.76 22.0002 26.6667 22.0002ZM45.3333 46.0002H37.3333C36.24 46.0002 35.3333 45.0935 35.3333 44.0002C35.3333 42.9068 36.24 42.0002 37.3333 42.0002H45.3333C46.4267 42.0002 47.3333 42.9068 47.3333 44.0002C47.3333 45.0935 46.4267 46.0002 45.3333 46.0002ZM45.3333 34.0002H37.3333C36.24 34.0002 35.3333 33.0935 35.3333 32.0002C35.3333 30.9068 36.24 30.0002 37.3333 30.0002H45.3333C46.4267 30.0002 47.3333 30.9068 47.3333 32.0002C47.3333 33.0935 46.4267 34.0002 45.3333 34.0002ZM45.3333 22.0002H37.3333C36.24 22.0002 35.3333 21.0935 35.3333 20.0002C35.3333 18.9068 36.24 18.0002 37.3333 18.0002H45.3333C46.4267 18.0002 47.3333 18.9068 47.3333 20.0002C47.3333 21.0935 46.4267 22.0002 45.3333 22.0002Z" fill="white"/>
</svg>
