<svg width="14" height="14" viewBox="0 0 14 14" fill="none" xmlns="http://www.w3.org/2000/svg">
<path d="M7.00007 0.142578C3.21308 0.142578 0.143066 3.2126 0.143066 6.99958C0.143066 10.2152 2.35706 12.9136 5.34369 13.6547V9.09509H3.92978V6.99958H5.34369V6.09665C5.34369 3.7628 6.39995 2.68104 8.69128 2.68104C9.12574 2.68104 9.87535 2.76634 10.182 2.85137V4.75076C10.0202 4.73375 9.73903 4.72525 9.38988 4.72525C8.2656 4.72525 7.83114 5.15121 7.83114 6.25848V6.99958H10.0709L9.6861 9.09509H7.83114V13.8064C11.2265 13.3963 13.8574 10.5054 13.8574 6.99958C13.8571 3.2126 10.7871 0.142578 7.00007 0.142578Z" fill="#101828"/>
</svg>
