<svg width="40" height="40" viewBox="0 0 40 40" fill="none" xmlns="http://www.w3.org/2000/svg">
<path d="M35.5313 14.1228C35.8666 14.7285 35.3878 15.4166 34.6955 15.4166H4.33398C3.7817 15.4166 3.33398 14.9689 3.33398 14.4166V10.7C3.33398 6.63331 6.63398 3.33331 10.7007 3.33331H14.5673C17.284 3.33331 18.134 4.21665 19.2173 5.66665L21.5507 8.76665C22.0673 9.44998 22.134 9.53331 23.1007 9.53331H27.7507C31.0969 9.53331 34.0151 11.3841 35.5313 14.1228Z" fill="#5A5F6D"/>
<path d="M36.6374 18.9127C36.6355 18.3617 36.1883 17.9161 35.6373 17.9161L4.33397 17.9166C3.78169 17.9166 3.33398 18.3644 3.33398 18.9166V27.75C3.33398 32.6666 7.33398 36.6666 12.2507 36.6666H27.7507C32.6673 36.6666 36.6673 32.6666 36.6673 27.75L36.6374 18.9127ZM23.9007 30.4666C23.6507 30.7 23.334 30.8333 23.0173 30.8333C22.7007 30.8333 22.3673 30.7 22.134 30.4666L20.0673 28.4L17.934 30.5333C17.7007 30.7666 17.3673 30.9 17.0506 30.9C16.734 30.9 16.4173 30.7666 16.1673 30.5333C15.684 30.05 15.684 29.25 16.1673 28.7666L18.3006 26.6333L16.234 24.5666C15.7507 24.0833 15.7507 23.2833 16.234 22.8C16.734 22.3166 17.5173 22.3166 18.0007 22.8L20.0673 24.8666L22.0673 22.8666C22.5506 22.3833 23.334 22.3833 23.834 22.8666C24.3173 23.3666 24.3173 24.15 23.834 24.6333L21.834 26.6333L23.9007 28.7C24.384 29.1833 24.384 29.9833 23.9007 30.4666Z" fill="#5A5F6D"/>
</svg>
