<svg width="56" height="56" viewBox="0 0 56 56" fill="none" xmlns="http://www.w3.org/2000/svg">
<path d="M6.01987 44.3567L5.9732 44.4034C5.3432 43.0267 4.94654 41.4634 4.7832 39.7367C4.94654 41.44 5.38987 42.98 6.01987 44.3567Z" fill="#344054"/>
<path d="M20.9996 24.2199C24.0666 24.2199 26.553 21.7336 26.553 18.6666C26.553 15.5996 24.0666 13.1133 20.9996 13.1133C17.9326 13.1133 15.4463 15.5996 15.4463 18.6666C15.4463 21.7336 17.9326 24.2199 20.9996 24.2199Z" fill="#344054"/>
<path d="M37.777 4.66663H18.2237C9.73032 4.66663 4.66699 9.72996 4.66699 18.2233V37.7766C4.66699 40.32 5.11033 42.5366 5.97366 44.4033C7.98033 48.8366 12.2737 51.3333 18.2237 51.3333H37.777C46.2703 51.3333 51.3337 46.27 51.3337 37.7766V32.4333V18.2233C51.3337 9.72996 46.2703 4.66663 37.777 4.66663ZM47.5303 29.1666C45.7103 27.6033 42.7703 27.6033 40.9503 29.1666L31.2437 37.4966C29.4237 39.06 26.4837 39.06 24.6637 37.4966L23.8703 36.8433C22.2137 35.3966 19.577 35.2566 17.7103 36.5166L8.98366 42.3733C8.47033 41.0666 8.16699 39.55 8.16699 37.7766V18.2233C8.16699 11.6433 11.6437 8.16663 18.2237 8.16663H37.777C44.357 8.16663 47.8337 11.6433 47.8337 18.2233V29.4233L47.5303 29.1666Z" fill="#344054"/>
</svg>
