<svg width="129" height="40" viewBox="0 0 129 40" fill="none" xmlns="http://www.w3.org/2000/svg">
<g clip-path="url(#clip0_3356_2862)">
<path d="M16.3846 14.2727V18.5455H26.6959C26.4222 20.9091 25.6009 22.7273 24.3234 23.9091C22.8634 25.3636 20.4909 27 16.3846 27C10.0883 27 5.1608 21.9091 5.1608 15.6364C5.1608 9.36364 9.99708 4.27273 16.3846 4.27273C19.7609 4.27273 22.3159 5.63636 24.1409 7.36364L27.1522 4.36364C24.5972 1.90909 21.1297 0 16.3846 0C7.71582 0 0.415771 7 0.415771 15.6364C0.415771 24.2727 7.71582 31.2727 16.3846 31.2727C21.0384 31.2727 24.5972 29.7273 27.3347 26.9091C30.1635 24.0909 31.076 20.0909 31.076 16.9091C31.076 15.9091 30.9847 15 30.8935 14.2727H16.3846Z" fill="#4285F4"/>
<path d="M43.851 10.7273C38.2848 10.7273 33.631 15 33.631 20.8182C33.631 26.6364 38.1935 30.9091 43.851 30.9091C49.5086 30.9091 54.0711 26.7273 54.0711 20.9091C54.0711 15 49.5086 10.7273 43.851 10.7273ZM43.851 27C40.7485 27 38.1023 24.4546 38.1023 20.9091C38.1023 17.2727 40.7485 14.8182 43.851 14.8182C46.9536 14.8182 49.5998 17.2727 49.5998 20.9091C49.5998 24.4546 46.9536 27 43.851 27Z" fill="#EA4335"/>
<path d="M93.7652 13H93.5826C92.5789 11.8182 90.6626 10.7273 88.1989 10.7273C83.0888 10.7273 78.7088 15.0909 78.7088 20.8182C78.7088 26.4546 83.0888 30.9091 88.1989 30.9091C90.6626 30.9091 92.5789 29.8182 93.5826 28.6364H93.7652V30.0909C93.7652 33.9091 91.6664 36 88.3814 36C85.6438 36 84.0013 34.0909 83.2713 32.3637L79.4388 34C80.5338 36.6364 83.5451 40 88.4726 40C93.6739 40 98.1452 36.9091 98.1452 29.4546V11.2727H93.9476V13H93.7652ZM88.6551 27C85.5526 27 83.2713 24.3637 83.2713 20.9091C83.2713 17.3637 85.6438 14.8182 88.6551 14.8182C91.6664 14.8182 94.0389 17.4546 94.0389 21C94.1301 24.4546 91.7576 27 88.6551 27Z" fill="#4285F4"/>
<path d="M66.5724 10.7273C61.0061 10.7273 56.3524 15 56.3524 20.8182C56.3524 26.6364 60.9149 30.9091 66.5724 30.9091C72.23 30.9091 76.7925 26.7273 76.7925 20.9091C76.7925 15 72.23 10.7273 66.5724 10.7273ZM66.5724 27C63.4699 27 60.8236 24.4546 60.8236 20.9091C60.8236 17.2727 63.4699 14.8182 66.5724 14.8182C69.6749 14.8182 72.3212 17.2727 72.3212 20.9091C72.3212 24.4546 69.6749 27 66.5724 27Z" fill="#FBBC05"/>
<path d="M101.521 0.45459H105.901V31H101.521V0.45459Z" fill="#34A853"/>
<path d="M119.407 27C117.125 27 115.574 26 114.479 23.9091L128.075 18.3637L127.619 17.1818C126.798 14.9091 124.152 10.7273 118.95 10.7273C113.749 10.7273 109.369 14.8182 109.369 20.8182C109.369 26.4546 113.658 30.9091 119.407 30.9091C124.06 30.9091 126.707 28.0909 127.893 26.4546L124.425 24.1818C123.239 25.9091 121.688 27 119.407 27ZM119.133 14.5455C120.958 14.5455 122.509 15.4546 122.965 16.7273L113.84 20.5455C113.749 16.3637 116.852 14.5455 119.133 14.5455Z" fill="#EA4335"/>
</g>
<defs>
<clipPath id="clip0_3356_2862">
<rect width="127.66" height="40" fill="white" transform="translate(0.415771)"/>
</clipPath>
</defs>
</svg>
