<svg width="161" height="40" viewBox="0 0 161 40" fill="none" xmlns="http://www.w3.org/2000/svg">
<g clip-path="url(#clip0_3356_2755)">
<path d="M64.9529 27.6464C64.9529 27.3056 64.7389 27.05 64.2682 26.9648V26.7518C64.5249 26.7518 65.338 26.7944 65.5947 26.7944C65.8087 26.7944 66.579 26.7518 66.8357 26.7518V26.9648C66.4078 27.05 66.1938 27.3056 66.1938 27.6464V31.9062C66.1938 33.2694 66.9213 34.0362 68.5046 34.0362C69.8312 34.0362 70.901 33.4398 70.901 32.034V27.6038C70.901 27.3056 70.687 27.05 70.2163 26.9222V26.7092C70.3875 26.7092 71.0721 26.7518 71.3289 26.7518C71.5429 26.7518 72.2703 26.7092 72.4415 26.7092V26.9222C71.9708 27.05 71.7568 27.263 71.7568 27.6038V31.7785C71.7568 33.6528 70.687 34.7177 68.3334 34.7177C66.151 34.7177 64.9957 33.738 64.9957 31.9914V27.6464H64.9529Z" fill="#1D1D1D"/>
<path d="M74.3672 34.377C74.8807 34.2918 75.0947 34.0362 75.0947 33.6954V27.8168C75.0947 27.3056 74.8379 27.0926 74.3672 26.9648V26.7518C74.6239 26.7518 75.0519 26.7944 75.2658 26.7944C75.4798 26.7944 75.7793 26.7944 75.9933 26.7518L81.1284 32.7582V27.6038C81.1284 27.3056 80.9144 27.05 80.4437 26.9222V26.7092C80.6148 26.7092 81.2995 26.7518 81.5135 26.7518C81.7274 26.7518 82.4121 26.7092 82.6261 26.7092V26.9222C82.1554 27.05 81.8986 27.263 81.8986 27.6038V34.6752H81.5991C81.3851 34.6326 81.0428 34.4196 80.4865 33.8232L75.8649 28.4984V33.6954C75.8649 33.9936 76.0361 34.2492 76.5496 34.377V34.59C76.3784 34.59 75.6937 34.5474 75.4798 34.5474C75.2658 34.5474 74.5812 34.59 74.41 34.59V34.377H74.3672Z" fill="#1D1D1D"/>
<path d="M114.977 32.7583H115.191C115.319 33.1843 115.576 33.6103 115.918 33.8233C116.303 34.0789 116.86 34.2067 117.33 34.2067C118.358 34.2067 119.042 33.6955 119.042 32.8861C119.042 32.0342 118.186 31.6082 117.202 31.097C116.432 30.7136 114.977 30.1172 114.977 28.7115C114.977 27.3909 116.004 26.5815 117.587 26.5815C118.657 26.5815 119.171 26.8371 119.855 26.7945V28.4133H119.641C119.342 27.4761 118.486 27.1353 117.544 27.1353C116.475 27.1353 116.09 27.7317 116.09 28.3281C116.09 29.1801 116.945 29.6486 117.93 30.0746C119.042 30.5432 120.198 31.1822 120.198 32.5453C120.198 33.8233 119.171 34.7605 117.33 34.7605C116.218 34.7605 115.576 34.4623 114.977 34.3771V32.7583Z" fill="#1D1D1D"/>
<path d="M137.101 31.3525L135.004 27.9872C134.661 27.3908 134.362 27.0926 133.977 26.9222V26.7092C134.276 26.7092 135.046 26.7518 135.26 26.7518C135.474 26.7518 136.287 26.7092 136.587 26.7092V26.9222C136.33 26.9648 136.202 27.0926 136.202 27.3056C136.202 27.476 136.33 27.7316 136.459 27.902C136.587 28.115 137.999 30.4579 137.999 30.4579L139.497 27.902C139.668 27.6464 139.754 27.3908 139.754 27.2204C139.754 27.05 139.625 26.9648 139.411 26.9222V26.7092C139.668 26.7092 140.182 26.7518 140.353 26.7518C140.524 26.7518 141.123 26.7092 141.38 26.7092V26.9222C140.823 27.1352 140.438 27.6464 140.096 28.2428L138.213 31.3951M138.299 31.0117V33.6954C138.299 33.951 138.513 34.2918 138.941 34.377V34.59C138.684 34.59 137.828 34.5474 137.614 34.5474C137.4 34.5474 136.63 34.59 136.33 34.59V34.377C136.801 34.2918 137.015 33.951 137.015 33.6954V31.1395" fill="#1D1D1D"/>
<path d="M98.1597 26.7093H103.081C103.252 26.7093 103.509 26.7093 103.637 26.6241H103.851L103.808 28.2003H103.594C103.423 27.6891 103.209 27.3057 102.268 27.3057H100.128V30.0746H101.754C102.011 30.0746 102.268 30.0746 102.396 30.032C102.781 29.9468 102.91 29.7338 102.995 29.4356H103.209C103.209 29.6912 103.209 30.2024 103.209 30.3728C103.209 30.5432 103.209 31.097 103.209 31.3526H103.038C102.952 31.0544 102.781 30.7988 102.439 30.7136C102.311 30.671 102.011 30.671 101.797 30.671H100.171V33.9085H102.482C103.509 33.9085 103.808 33.4825 104.022 32.8861L104.236 32.9287L104.022 34.5475C103.252 34.4623 102.824 34.4623 101.968 34.4623H99.529C99.2723 34.4623 98.4164 34.5049 98.1597 34.5049V34.2919C98.5876 34.2067 98.8443 33.9937 98.8443 33.5677V27.6465C98.8443 27.2631 98.6304 27.0501 98.1597 26.9649V26.7093Z" fill="#1D1D1D"/>
<path d="M85.6215 27.689C85.6215 27.3056 85.3648 27.05 84.894 26.9648V26.7518C85.1508 26.7518 86.0066 26.7944 86.2634 26.7944C86.4774 26.7944 87.3332 26.7518 87.6327 26.7518V26.9648C87.162 27.05 86.9053 27.263 86.9053 27.689V33.6528C86.9053 34.0362 87.162 34.2918 87.6327 34.377V34.59C87.376 34.59 86.5201 34.5474 86.2634 34.5474C86.0494 34.5474 85.1508 34.59 84.894 34.59V34.377C85.3648 34.2918 85.6215 34.0788 85.6215 33.6528V27.689Z" fill="#1D1D1D"/>
<path d="M122.893 27.689C122.893 27.3056 122.637 27.05 122.166 26.9648V26.7518C122.423 26.7518 123.279 26.7944 123.535 26.7944C123.749 26.7944 124.605 26.7518 124.905 26.7518V26.9648C124.434 27.05 124.177 27.263 124.177 27.689V33.6528C124.177 34.0362 124.434 34.2918 124.905 34.377V34.59C124.648 34.59 123.792 34.5474 123.535 34.5474C123.321 34.5474 122.423 34.59 122.166 34.59V34.377C122.637 34.2918 122.893 34.0788 122.893 33.6528V27.689Z" fill="#1D1D1D"/>
<path d="M129.697 26.7518C127.002 26.7518 126.574 26.7092 126.017 26.6666V28.2854H126.231C126.445 27.5612 126.83 27.3908 127.344 27.3908H129.013V33.6528C129.013 34.0788 128.799 34.2918 128.285 34.377V34.5899C128.542 34.5899 129.441 34.5473 129.655 34.5473C129.911 34.5473 130.724 34.5899 131.024 34.5899V34.377C130.553 34.2918 130.297 34.0362 130.297 33.6528V27.4334H131.965C132.522 27.4334 132.907 27.6038 133.078 28.328H133.292V26.7092C132.821 26.7092 132.393 26.7518 129.697 26.7518Z" fill="#1D1D1D"/>
<path d="M108.216 33.6528C108.216 34.0362 108.473 34.2918 108.943 34.377V34.5899C108.686 34.5899 107.831 34.5473 107.574 34.5473C107.36 34.5473 106.504 34.5899 106.247 34.5899V34.377C106.675 34.2918 106.932 34.0788 106.932 33.6528V27.6038C106.932 27.2204 106.718 27.0074 106.247 26.9222V26.7092C106.504 26.7092 107.36 26.7518 107.574 26.7518C107.959 26.7518 109.072 26.6666 109.5 26.6666C111.382 26.6666 112.452 27.4334 112.452 28.754C112.452 29.8189 111.682 30.5005 110.484 30.7987C110.484 30.7987 110.74 30.9691 111.04 31.2673C111.382 31.6507 112.281 32.9286 112.666 33.3972C113.051 33.8658 113.522 34.3344 114.035 34.377V34.5473C113.779 34.5899 113.394 34.6325 113.094 34.6325C112.452 34.6325 111.939 34.4196 111.425 33.8232C110.997 33.312 110.27 32.2044 109.842 31.6933C109.585 31.3525 109.243 31.0543 108.644 30.9691C108.515 30.9691 108.43 30.9265 108.259 30.9265V33.6528H108.216ZM108.216 30.4579C108.473 30.5005 108.858 30.5005 109.2 30.5005C110.698 30.5005 111.126 29.6485 111.126 28.9243C111.126 27.8594 110.398 27.2204 109.114 27.2204C108.858 27.2204 108.473 27.263 108.173 27.3056V30.4579H108.216Z" fill="#1D1D1D"/>
<path d="M89.5156 27.689C89.3444 27.3056 89.0877 27.05 88.6169 26.9222V26.7092C88.9165 26.7092 89.8579 26.7518 90.0719 26.7518C90.2858 26.7518 91.0989 26.7092 91.3984 26.7092V26.9222C91.1417 26.9648 90.8421 27.0926 90.8421 27.3908C90.8421 27.5612 90.9705 27.8168 91.1845 28.328L93.2385 32.9286L95.1641 28.328C95.3353 27.9446 95.4209 27.6464 95.4209 27.4334C95.4209 27.1778 95.2069 27.0074 94.8646 26.9648V26.7518C95.1214 26.7518 95.7632 26.7944 95.9344 26.7944C96.1056 26.7944 96.833 26.7518 97.1326 26.7518V26.9648C96.6619 27.0926 96.3623 27.3482 96.1056 27.9872L93.2813 34.6326H92.6394L89.5156 27.689Z" fill="#1D1D1D"/>
<path d="M96.7475 6.73054C96.4052 6.00636 95.9345 5.49518 95.0786 5.28219V4.8562C95.5921 4.8562 97.3466 4.8988 97.7745 4.8988C98.1597 4.8988 99.8286 4.8562 100.385 4.8562V5.28219C99.9141 5.36738 99.3578 5.62297 99.3578 6.13416C99.3578 6.47494 99.5718 6.94353 99.9997 7.8807L103.851 16.6134L107.488 7.8807C107.788 7.15652 108.002 6.64534 108.002 6.21935C108.002 5.75077 107.574 5.45258 106.975 5.32478V4.8988C107.446 4.8988 108.644 4.9414 108.986 4.9414C109.328 4.9414 110.741 4.8988 111.254 4.8988V5.28219C110.355 5.53778 109.799 6.04896 109.286 7.24172L103.894 19.8509H102.696L96.7475 6.73054Z" fill="#1D1D1D"/>
<path d="M44.7977 19.3397C45.4824 19.1693 45.9959 18.8711 45.9959 18.0617V6.51754C45.9959 5.75077 45.5252 5.45258 44.7977 5.23958V4.8136C45.1829 4.8136 46.7662 4.8562 47.1513 4.8562C47.5792 4.8562 49.2481 4.8136 49.6332 4.8136V5.23958C48.9486 5.40998 48.3923 5.70817 48.3923 6.51754V11.3312H57.0363V6.51754C57.0363 5.70817 56.5656 5.40998 55.8381 5.23958V4.8136C56.2232 4.8136 57.8493 4.8562 58.2773 4.8562C58.6624 4.8562 60.2885 4.8136 60.6308 4.8136V5.23958C59.9462 5.40998 59.3899 5.70817 59.3899 6.51754V18.0617C59.3899 18.8285 59.8606 19.1267 60.6308 19.3397V19.7231C60.2885 19.7231 58.6624 19.6805 58.2773 19.6805C57.8493 19.6805 56.2232 19.7231 55.8381 19.7231V19.3397C56.5228 19.1693 57.0363 18.8711 57.0363 18.0617V12.6091H48.3923V18.0617C48.3923 18.8711 48.863 19.1267 49.6332 19.3397V19.7231C49.2481 19.7231 47.622 19.6805 47.1513 19.6805C46.7662 19.6805 45.1829 19.7231 44.7977 19.7231V19.3397Z" fill="#1D1D1D"/>
<path d="M144.846 19.3398C145.745 19.1694 146.258 18.8286 146.258 18.0192V6.51765C146.258 5.70828 145.787 5.41009 144.889 5.23969V4.81371C145.402 4.81371 147.028 4.85631 147.456 4.85631C148.184 4.85631 150.195 4.68591 151.778 4.68591C157.085 4.68591 160.337 7.62521 160.337 12.1407C160.337 16.5283 156.956 19.7658 151.479 19.7658C149.895 19.7658 148.013 19.638 147.285 19.638C146.857 19.638 145.317 19.6806 144.846 19.6806V19.3398ZM148.654 18.573C149.211 18.6582 150.195 18.7434 151.008 18.7434C155.458 18.7434 157.812 16.0597 157.812 12.311C157.812 8.43458 155.373 5.70828 151.179 5.70828C150.323 5.70828 149.254 5.75088 148.697 5.87867V18.573H148.654Z" fill="#1D1D1D"/>
<path d="M84.6373 17.9767C84.6373 18.7434 85.1081 19.1694 86.0067 19.3398V19.7658C85.4932 19.7658 83.8671 19.7232 83.3964 19.7232C83.0112 19.7232 81.3851 19.7658 80.9144 19.7658V19.3398C81.7275 19.1694 82.241 18.786 82.241 17.9767V6.56025C82.241 5.87868 81.8559 5.41009 80.9144 5.2397V4.81371C81.4279 4.81371 83.0112 4.85631 83.4392 4.85631C84.1666 4.85631 86.2634 4.72852 87.0765 4.72852C90.671 4.72852 92.6395 6.21946 92.6395 8.73278C92.6395 10.7349 91.1418 12.0555 88.8738 12.6092C88.8738 12.6092 89.3873 12.9074 89.9008 13.5038C90.5427 14.228 92.2544 16.7413 92.9818 17.5933C93.6665 18.4452 94.6079 19.3824 95.5494 19.425V19.7658C95.0786 19.851 94.3512 19.9362 93.7949 19.9362C92.5967 19.9362 91.6125 19.5102 90.671 18.36C89.858 17.3803 88.4459 15.2929 87.6328 14.228C87.1193 13.589 86.4774 13.0352 85.322 12.8648C85.1081 12.8222 84.8941 12.7796 84.6373 12.7796V17.9767ZM84.6373 11.9277C85.1081 11.9703 85.7927 12.0129 86.5202 12.0129C89.3017 12.0129 90.2003 10.3941 90.2003 8.98837C90.2003 6.98624 88.8738 5.75088 86.3918 5.75088C85.8783 5.75088 85.1509 5.79348 84.6373 5.92127V11.9277Z" fill="#1D1D1D"/>
<path d="M131.794 17.9767C131.794 18.7434 132.265 19.1694 133.164 19.3398V19.7658C132.65 19.7658 131.024 19.7232 130.553 19.7232C130.168 19.7232 128.542 19.7658 128.071 19.7658V19.3398C128.884 19.1694 129.398 18.786 129.398 17.9767V6.56025C129.398 5.87868 129.013 5.41009 128.071 5.2397V4.81371C128.585 4.81371 130.125 4.85631 130.596 4.85631C131.324 4.85631 133.42 4.72852 134.233 4.72852C137.828 4.72852 139.796 6.21946 139.796 8.73278C139.796 10.7349 138.299 12.0555 136.031 12.6092C136.031 12.6092 136.544 12.9074 137.058 13.5038C137.7 14.228 139.454 16.7413 140.139 17.5933C140.866 18.4452 141.765 19.3824 142.706 19.425V19.7658C142.236 19.851 141.508 19.9362 140.952 19.9362C139.711 19.9362 138.769 19.5102 137.828 18.36C137.015 17.3803 135.603 15.2929 134.79 14.228C134.276 13.589 133.634 13.0352 132.479 12.8648C132.265 12.8222 132.051 12.7796 131.794 12.7796V17.9767ZM131.794 11.9277C132.265 11.9703 132.95 12.0129 133.677 12.0129C136.459 12.0129 137.357 10.3941 137.357 8.98837C137.357 6.98624 136.031 5.75088 133.549 5.75088C133.035 5.75088 132.308 5.79348 131.794 5.92127V11.9277Z" fill="#1D1D1D"/>
<path d="M62.9417 19.3397C63.8831 19.1267 64.3967 18.5303 64.739 17.6783L69.5317 6.21935C69.7457 5.75076 69.9596 4.771 69.9596 4.771H71.2862C71.2862 4.771 71.543 5.75076 71.7141 6.21935L76.7636 17.7209C77.1059 18.5303 77.5339 19.0841 78.5181 19.3397V19.7231C77.9618 19.7231 76.2501 19.6805 75.865 19.6805C75.4798 19.6805 73.8537 19.7231 73.2974 19.7231V19.3397C74.0249 19.1693 74.2817 18.7859 74.2817 18.4451C74.2817 18.1469 74.1533 17.8061 73.9821 17.4228L72.9123 14.952H67.3493L66.3651 17.4228C66.2367 17.7209 66.1083 18.1043 66.1083 18.3599C66.1083 18.7859 66.3223 19.0841 67.1781 19.3397V19.7231C66.6646 19.7231 65.3809 19.6805 65.0813 19.6805L62.8989 19.7231L62.9417 19.3397ZM72.4844 13.7593L70.088 8.22148L67.8628 13.7593H72.4844Z" fill="#1D1D1D"/>
<path d="M110.398 19.3397C111.34 19.1267 111.853 18.5303 112.195 17.6783L116.988 6.21935C117.202 5.75076 117.416 4.771 117.416 4.771H118.743C118.743 4.771 118.999 5.75076 119.171 6.21935L124.22 17.7209C124.562 18.5303 124.99 19.0841 125.975 19.3397V19.7231C125.418 19.7231 123.707 19.6805 123.321 19.6805C122.936 19.6805 121.31 19.7231 120.754 19.7231V19.3397C121.481 19.1693 121.738 18.7859 121.738 18.4451C121.738 18.1469 121.61 17.8061 121.481 17.4228L120.412 14.952H114.849L113.864 17.4228C113.736 17.7209 113.608 18.1043 113.608 18.3599C113.608 18.7859 113.822 19.0841 114.677 19.3397V19.7231C114.164 19.7231 112.88 19.6805 112.581 19.6805L110.398 19.7231V19.3397ZM119.941 13.7593L117.544 8.22148L115.319 13.7593H119.941Z" fill="#1D1D1D"/>
<path d="M0.593506 0.213013H33.9714V12.7796C33.9714 18.5304 31.8318 30.7561 17.4108 39.8296C17.4108 39.8296 1.79169 33.3121 0.593506 12.7796V0.213013Z" fill="#A51C30"/>
<path d="M0.550659 0.213013H33.9286V12.7796C33.9286 18.5304 31.789 30.7135 17.368 39.8296C17.368 39.8296 1.74884 33.3547 0.550659 12.7796V0.213013Z" stroke="black" stroke-width="0.915"/>
<path d="M25.8836 16.3578C25.8836 16.3578 25.5841 17.295 24.2575 16.3152L19.7215 16.1875C19.7215 16.1875 19.1224 16.3578 19.0369 15.7615C19.0369 15.7615 19.1652 14.5261 19.0797 14.3983C19.0797 14.3983 19.1224 14.0575 18.5234 14.0575C18.5234 14.0575 17.5819 14.1853 17.5819 13.376C17.5819 13.376 17.4108 12.524 18.6945 12.524C18.6945 12.524 19.0797 12.6944 19.1224 12.1832C19.1224 12.1832 19.0797 8.69012 19.0797 8.43453C19.0797 8.43453 19.208 8.09374 18.5661 8.05114C18.5661 8.05114 17.6675 8.22153 17.5819 7.66775C17.5819 7.66775 17.5391 6.77318 18.1382 6.73059C18.1382 6.73059 18.8657 6.77318 18.9941 6.60279C18.9941 6.60279 19.1652 6.68799 19.1224 6.04901L19.1652 4.94145C19.1652 4.94145 19.2508 4.64326 19.7215 4.68586C19.7215 4.68586 20.5774 4.72845 20.663 4.64326C20.663 4.64326 20.8341 4.38767 20.9197 4.30247C20.9197 4.30247 21.3476 4.25987 21.4332 4.38767C21.4332 4.38767 22.0751 4.81365 24.5571 4.64326C24.5571 4.64326 24.9422 4.64326 25.0278 4.77105C25.0278 4.77105 25.4985 5.11184 25.7552 4.72846C25.7552 4.72846 26.1404 4.64326 27.3813 4.68586C27.3813 4.68586 28.7079 5.02664 29.6493 4.30247L29.9489 4.34507C29.9489 4.34507 30.334 4.98405 30.5908 4.77105C30.5908 4.77105 31.4038 4.68586 31.5322 4.85625C31.5322 4.85625 31.7889 5.23964 31.6606 6.3046C31.6606 6.3046 31.4894 6.77318 32.3024 6.77318C32.3024 6.77318 33.2011 6.60279 33.0727 7.45476C33.0727 7.45476 33.3295 8.39193 31.8317 8.26413C31.8317 8.26413 31.6606 8.51972 31.6606 8.73271C31.6606 8.73271 31.6178 11.7998 31.6178 12.1406C31.6178 12.1406 31.575 12.6092 32.2596 12.6092C32.2596 12.6092 33.1155 12.5666 33.1583 13.3334C33.1583 13.3334 33.2867 14.3557 32.0029 14.1853C32.0029 14.1853 31.6178 14.2279 31.575 14.4835L31.5322 15.8467C31.5322 15.8467 31.575 16.5282 30.8047 16.3578C30.6763 16.3578 26.5683 16.443 26.226 16.3152C26.0976 16.2727 25.9264 16.2301 25.8836 16.3578Z" fill="white"/>
<path d="M17.1113 20.8733C17.1113 20.8733 17.2825 20.7881 17.368 20.6603C17.368 20.6603 17.9243 20.6177 18.0099 20.5325L19.8072 20.6603C19.8072 20.6603 21.5617 20.7881 22.3319 20.2343C22.3319 20.2343 22.5887 20.2343 22.8026 20.3195C22.8026 20.3195 23.1878 20.4047 23.2734 20.5751L24.3004 20.5325C24.3004 20.5325 24.8995 20.7029 24.8567 21.0863V21.5549C24.8567 21.5549 24.7283 22.5347 25.0278 22.5773H25.7981C25.7981 22.5773 26.44 22.8754 26.3544 23.2588C26.3544 23.2588 26.3972 23.8126 25.7981 23.8978C25.7981 23.8978 25.2418 24.0682 25.0278 24.0256C25.0278 24.0256 24.8567 24.2812 24.8139 24.5794L24.7711 28.1151C24.7711 28.1151 24.7283 28.4984 25.2846 28.4558C25.2846 28.4558 26.1404 28.3706 26.3544 28.8392C26.3544 28.8392 26.5684 29.606 26.1404 29.7338L25.7981 29.9042L25.1134 30.032C25.1134 30.032 24.8139 30.0746 24.7711 30.5858V31.5229C24.7711 31.5229 24.8139 32.1619 24.3004 32.1619L23.5301 32.2045C23.5301 32.2045 23.3589 32.3749 22.9738 32.2471C22.9738 32.2471 18.3523 32.3323 18.2239 32.2897L17.6676 32.3749C17.6676 32.3749 17.0685 32.9287 16.5978 32.5027L16.2127 32.2045C16.2127 32.2045 15.9559 32.2471 15.8275 32.2471C15.6991 32.2045 10.7353 32.2897 10.7353 32.2897C10.7353 32.2897 9.66545 32.4175 9.57986 32.0341C9.57986 32.0341 9.45149 30.671 9.49428 30.5006C9.49428 30.5006 9.49428 30.1172 9.23752 30.0746C9.23752 30.0746 8.16772 30.032 8.16772 29.9042C8.16772 29.9042 7.61142 29.5208 7.78259 29.0948C7.78259 29.0948 7.95376 28.541 8.55285 28.4984C8.55285 28.4984 9.40869 28.6262 9.40869 28.3706C9.40869 28.3706 9.45149 28.2003 9.45149 27.9447C9.45149 27.9447 9.49428 24.7498 9.49428 24.5368C9.49428 24.5368 9.57986 24.1108 9.23752 24.1108C9.23752 24.1108 8.85239 24.2386 8.59564 24.0682C8.59564 24.0682 7.95376 24.1108 7.82538 23.5996C7.82538 23.5996 7.69701 23.2588 7.86817 23.0032C7.86817 23.0032 8.16772 22.4069 9.02356 22.6199C9.02356 22.6199 9.49428 22.7476 9.57986 22.4069L9.53707 21.1289C9.53707 21.1289 9.40869 20.7881 10.0934 20.5751C10.0934 20.5751 10.9492 20.8307 11.2488 20.4047C11.2488 20.4047 11.5483 19.8083 11.8051 20.2343C11.8051 20.2343 12.3186 20.7029 13.7307 20.6603C13.7307 20.6603 16.1699 20.4899 16.2127 20.5751C16.2127 20.5751 16.8117 20.6603 16.9829 20.8307L17.1113 20.8733Z" fill="white"/>
<path d="M9.75092 16.3578C9.75092 16.3578 9.45138 17.295 8.12482 16.3152L3.58885 16.23C3.58885 16.23 2.98976 16.4004 2.90417 15.8041C2.90417 15.8041 3.03255 14.5687 2.94696 14.4409C2.94696 14.4409 2.98976 14.1001 2.39067 14.1001C2.39067 14.1001 1.49203 14.2279 1.44924 13.4185C1.44924 13.4185 1.27807 12.5666 2.56183 12.5666C2.56183 12.5666 2.94696 12.737 2.98976 12.2258C2.98976 12.2258 2.94696 8.73271 2.94696 8.43452C2.94696 8.43452 3.07534 8.09373 2.43346 8.05113C2.43346 8.05113 1.53482 8.22153 1.44924 7.62515C1.44924 7.62515 1.40644 6.73058 2.00554 6.68798C2.00554 6.68798 2.733 6.73058 2.86138 6.56019C2.86138 6.56019 3.03255 6.64538 2.98976 6.00641L3.03255 4.89885C3.03255 4.89885 3.11813 4.60066 3.58885 4.64325C3.58885 4.64325 4.44469 4.68585 4.53027 4.60066C4.53027 4.60066 4.70144 4.34506 4.78703 4.25987C4.78703 4.25987 5.21495 4.21727 5.30053 4.34506C5.30053 4.34506 5.94242 4.77105 8.42436 4.60066C8.42436 4.60066 8.80949 4.60066 8.89508 4.72845C8.89508 4.72845 9.36579 5.06924 9.62255 4.68585C9.62255 4.68585 10.0077 4.60066 11.2486 4.64325C11.2486 4.64325 12.5752 4.98404 13.4738 4.25987L13.7734 4.30247C13.7734 4.30247 14.1585 4.94144 14.4153 4.72845C14.4153 4.72845 15.2283 4.64325 15.3567 4.81365C15.3567 4.81365 15.6135 5.19703 15.4851 6.262C15.4851 6.262 15.3139 6.73058 16.127 6.73058C16.127 6.73058 17.0256 6.56019 16.8972 7.41216C16.8972 7.41216 17.154 8.34932 15.6562 8.22153C15.6562 8.22153 15.4851 8.47712 15.4851 8.69011C15.4851 8.69011 15.4423 11.7572 15.4423 12.098C15.4423 12.098 15.3995 12.5666 16.0842 12.5666C16.0842 12.5666 16.94 12.524 16.9828 13.2908C16.9828 13.2908 17.1112 14.3131 15.8274 14.1427C15.8274 14.1427 15.4423 14.1853 15.3995 14.4409L15.3139 15.8041C15.3139 15.8041 15.3567 16.4856 14.5864 16.3152C14.4581 16.3152 10.35 16.4004 10.0077 16.2726C10.0077 16.2726 9.83651 16.23 9.75092 16.3578Z" fill="white"/>
<path d="M25.8836 16.3578C25.8836 16.3578 25.5841 17.295 24.2575 16.3152L19.7215 16.1875C19.7215 16.1875 19.1224 16.3578 19.0369 15.7615C19.0369 15.7615 19.1652 14.5261 19.0797 14.3983C19.0797 14.3983 19.1224 14.0575 18.5234 14.0575C18.5234 14.0575 17.5819 14.1853 17.5819 13.376C17.5819 13.376 17.4108 12.524 18.6945 12.524C18.6945 12.524 19.0797 12.6944 19.1224 12.1832C19.1224 12.1832 19.0797 8.69012 19.0797 8.43453C19.0797 8.43453 19.208 8.09374 18.5661 8.05114C18.5661 8.05114 17.6675 8.22153 17.5819 7.66775C17.5819 7.66775 17.5391 6.77318 18.1382 6.73059C18.1382 6.73059 18.8657 6.77318 18.9941 6.60279C18.9941 6.60279 19.1652 6.68799 19.1224 6.04901L19.1652 4.94145C19.1652 4.94145 19.2508 4.64326 19.7215 4.68586C19.7215 4.68586 20.5774 4.72845 20.663 4.64326C20.663 4.64326 20.8341 4.38767 20.9197 4.30247C20.9197 4.30247 21.3476 4.25987 21.4332 4.38767C21.4332 4.38767 22.0751 4.81365 24.5571 4.64326C24.5571 4.64326 24.9422 4.64326 25.0278 4.77105C25.0278 4.77105 25.4985 5.11184 25.7552 4.72846C25.7552 4.72846 26.1404 4.64326 27.3813 4.68586C27.3813 4.68586 28.7079 5.02664 29.6493 4.30247L29.9489 4.34507C29.9489 4.34507 30.334 4.98405 30.5908 4.77105C30.5908 4.77105 31.4038 4.68586 31.5322 4.85625C31.5322 4.85625 31.7889 5.23964 31.6606 6.3046C31.6606 6.3046 31.4894 6.77318 32.3024 6.77318C32.3024 6.77318 33.2011 6.60279 33.0727 7.45476C33.0727 7.45476 33.3295 8.39193 31.8317 8.26413C31.8317 8.26413 31.6606 8.51972 31.6606 8.73271C31.6606 8.73271 31.6178 11.7998 31.6178 12.1406C31.6178 12.1406 31.575 12.6092 32.2596 12.6092C32.2596 12.6092 33.1155 12.5666 33.1583 13.3334C33.1583 13.3334 33.2867 14.3557 32.0029 14.1853C32.0029 14.1853 31.6178 14.2279 31.575 14.4835L31.5322 15.8467C31.5322 15.8467 31.575 16.5282 30.8047 16.3578C30.6763 16.3578 26.5683 16.443 26.226 16.3152C26.0976 16.2727 25.9264 16.2301 25.8836 16.3578Z" fill="#1E1E1E"/>
<path d="M25.8836 16.3578C25.8836 16.3578 25.5841 17.295 24.2575 16.3152L19.7215 16.1875C19.7215 16.1875 19.1224 16.3578 19.0369 15.7615C19.0369 15.7615 19.1652 14.5261 19.0797 14.3983C19.0797 14.3983 19.1224 14.0575 18.5234 14.0575C18.5234 14.0575 17.5819 14.1853 17.5819 13.376C17.5819 13.376 17.4108 12.524 18.6945 12.524C18.6945 12.524 19.0797 12.6944 19.1224 12.1832C19.1224 12.1832 19.0797 8.69012 19.0797 8.43452C19.0797 8.43452 19.208 8.09374 18.5661 8.05114C18.5661 8.05114 17.6675 8.22153 17.5819 7.66775C17.5819 7.66775 17.5391 6.77318 18.1382 6.73059C18.1382 6.73059 18.8657 6.77318 18.9941 6.60279C18.9941 6.60279 19.1652 6.68799 19.1224 6.04901L19.1652 4.94145C19.1652 4.94145 19.2508 4.64326 19.7215 4.68586C19.7215 4.68586 20.5774 4.72845 20.663 4.64326C20.663 4.64326 20.8341 4.38767 20.9197 4.30247C20.9197 4.30247 21.3476 4.25987 21.4332 4.38767C21.4332 4.38767 22.0751 4.81365 24.5571 4.64326C24.5571 4.64326 24.9422 4.64326 25.0278 4.77105C25.0278 4.77105 25.4985 5.11184 25.7552 4.72846C25.7552 4.72846 26.1404 4.64326 27.3813 4.68586C27.3813 4.68586 28.7079 5.02664 29.6493 4.30247L29.9489 4.34507C29.9489 4.34507 30.334 4.98405 30.5908 4.77105C30.5908 4.77105 31.4038 4.68586 31.5322 4.85625C31.5322 4.85625 31.7889 5.23964 31.6606 6.3046C31.6606 6.3046 31.4894 6.77318 32.3024 6.77318C32.3024 6.77318 33.2011 6.60279 33.0727 7.45476C33.0727 7.45476 33.3295 8.39193 31.8317 8.26413C31.8317 8.26413 31.6606 8.51972 31.6606 8.73271C31.6606 8.73271 31.6178 11.7998 31.6178 12.1406C31.6178 12.1406 31.575 12.6092 32.2596 12.6092C32.2596 12.6092 33.1155 12.5666 33.1583 13.3334C33.1583 13.3334 33.2867 14.3557 32.0029 14.1853C32.0029 14.1853 31.6178 14.2279 31.575 14.4835L31.5322 15.8467C31.5322 15.8467 31.575 16.5282 30.8047 16.3578C30.6763 16.3578 26.5683 16.443 26.226 16.3152C26.0976 16.2727 25.9264 16.2301 25.8836 16.3578Z" stroke="black" stroke-width="0.2189"/>
<path d="M20.7486 5.23963C20.7486 5.23963 20.7914 5.79341 20.7914 5.92121C20.7914 6.049 20.7058 13.7167 20.7058 13.7167C20.7058 13.7167 20.7914 14.3131 20.2779 14.6113C20.2779 14.6113 20.1495 14.6539 20.1067 14.2705L20.1495 6.1768C20.1923 6.1768 20.2351 5.19703 20.7486 5.23963Z" fill="white"/>
<path d="M20.7486 5.23963C20.7486 5.23963 20.7914 5.79341 20.7914 5.92121C20.7914 6.049 20.7058 13.7167 20.7058 13.7167C20.7058 13.7167 20.7914 14.3131 20.2779 14.6113C20.2779 14.6113 20.1495 14.6539 20.1067 14.2705L20.1495 6.1768C20.1923 6.1768 20.2351 5.19703 20.7486 5.23963Z" stroke="black" stroke-width="0.2305"/>
<path d="M19.8499 14.6966C19.8499 14.6966 19.8927 7.11403 19.8927 6.98623C19.8499 6.85844 19.9355 7.11403 19.9355 7.11403C19.9355 7.11403 19.8499 5.79347 20.1923 5.23969C20.1923 5.23969 20.0639 4.77111 19.4648 5.36749L19.422 6.38985C19.422 6.38985 19.422 7.02883 18.8657 6.98623C18.8657 6.98623 18.2238 6.94363 17.9243 7.24182C17.9243 7.24182 17.7531 7.8382 18.395 7.71041C18.395 7.71041 19.3792 7.71041 19.422 8.09379L19.3792 12.1832C19.3792 12.1832 19.5932 12.8648 18.8229 12.8648C18.8229 12.8648 17.8815 12.8222 17.9243 13.376C17.9243 13.376 18.0954 13.8446 18.9085 13.7168C18.9085 13.7168 19.4648 13.802 19.4648 14.3558V15.3781C19.4648 15.3781 19.422 15.8041 19.9355 15.8041H24.1719C24.1719 15.8041 24.3859 15.8467 24.3859 15.5485C24.3859 15.5485 24.3431 15.3355 24.0436 15.3355H20.4918C20.4918 15.3355 19.8927 15.5059 19.8499 14.6966Z" fill="white"/>
<path d="M20.663 14.6539C20.663 14.6539 20.5346 15.0373 20.9625 14.9521H23.744L24.5142 15.1225C24.5142 15.1225 25.2845 14.9521 24.5142 14.4835C24.5142 14.4835 22.0323 14.5261 21.8183 14.4409C21.8183 14.4409 21.3048 14.3131 21.1765 14.2705C21.1765 14.3131 20.9197 14.2279 20.663 14.6539Z" fill="white"/>
<path d="M20.663 14.6539C20.663 14.6539 20.5346 15.0373 20.9625 14.9521H23.744L24.5142 15.1225C24.5142 15.1225 25.2845 14.9521 24.5142 14.4835C24.5142 14.4835 22.0323 14.5261 21.8183 14.4409C21.8183 14.4409 21.3048 14.3131 21.1765 14.2705C21.1765 14.3131 20.9197 14.2279 20.663 14.6539Z" stroke="black" stroke-width="0.2305"/>
<path d="M25.2845 15.0373C25.2845 15.0373 24.771 15.0373 24.8138 15.7189C24.8138 15.7189 24.8566 16.23 25.4129 16.23C25.4129 16.23 25.8836 16.1448 25.8408 15.5911C25.8408 15.6337 25.5413 14.9521 25.2845 15.0373Z" fill="white"/>
<path d="M25.6697 14.7817C25.6697 14.7817 25.9265 14.5261 26.0548 14.5261C26.0548 14.5261 28.7508 14.7817 29.2215 14.4409C29.2215 14.4409 29.6494 14.3557 29.735 14.4409C29.735 14.4409 30.1201 14.7817 30.1201 14.9521C30.1201 14.9521 30.0773 15.2077 29.6066 15.0373C29.6066 15.0373 26.5684 15.0799 26.3972 15.0799C26.44 15.0799 25.5841 15.2503 25.6697 14.7817Z" fill="white"/>
<path d="M25.6697 14.7817C25.6697 14.7817 25.9265 14.5261 26.0548 14.5261C26.0548 14.5261 28.7508 14.7817 29.2215 14.4409C29.2215 14.4409 29.6494 14.3557 29.735 14.4409C29.735 14.4409 30.1201 14.7817 30.1201 14.9521C30.1201 14.9521 30.0773 15.2077 29.6066 15.0373C29.6066 15.0373 26.5684 15.0799 26.3972 15.0799C26.44 15.0799 25.5841 15.2503 25.6697 14.7817Z" stroke="black" stroke-width="0.2305"/>
<path d="M26.012 15.6337C26.012 15.6337 26.012 15.4207 26.3971 15.4207L30.2056 15.3781C30.2056 15.3781 30.5479 15.5485 30.5479 14.9095C30.5479 14.9095 30.6763 11.9702 30.7191 8.73276C30.7191 7.75299 30.7619 6.77323 30.7191 5.83606C30.7191 5.83606 30.6335 5.45268 30.5479 5.36748C30.5479 5.36748 30.5479 4.94149 31.0186 5.11189C31.0186 5.11189 31.4038 5.15449 31.3182 5.75086L31.361 6.68803C31.361 6.68803 31.2754 7.11402 32.0029 6.98622C32.0029 6.98622 32.7303 7.11402 32.7731 7.36961C32.7731 7.36961 32.9871 7.92339 32.1312 7.83819H31.4894C31.4894 7.83819 31.2326 8.00859 31.3182 8.30678L31.147 12.2684C31.147 12.2684 31.1042 12.95 31.7461 12.9074C31.7461 12.9074 32.4308 12.8648 32.5592 13.0778C32.5592 13.0778 33.0299 13.7594 32.0029 13.7168C32.0029 13.7168 31.361 13.6742 31.2326 13.802C31.2326 13.802 31.1042 13.9298 31.0614 15.2077C31.0614 15.2077 31.1042 15.9745 30.5479 15.8893C30.5479 15.8893 26.7822 15.9319 26.4399 15.8467C26.4399 15.8467 26.0975 15.9319 26.012 15.6337Z" fill="white"/>
<path d="M21.1764 5.02659L21.0909 13.6741C21.0909 13.6741 21.0481 14.0575 21.7327 14.1427C21.7327 14.1427 22.503 14.2279 22.717 14.1427C22.717 14.1427 23.2305 14.1001 24.557 14.1853C24.557 14.1853 24.8994 14.5261 24.8994 14.1001C24.8994 14.1001 25.1133 7.11391 25.0277 5.62297C25.0277 5.62297 24.9849 4.98399 24.557 4.98399C24.557 4.98399 22.503 5.15438 22.3318 4.98399L21.5188 4.771C21.4332 4.771 21.1337 4.81359 21.1764 5.02659Z" fill="white"/>
<path d="M25.4129 5.45262C25.4129 5.45262 25.3274 9.49948 25.3701 9.66988L25.3274 13.0778L25.199 14.2705C25.199 14.2705 25.3701 14.5261 25.4985 14.3557C25.4985 14.3557 26.3544 14.1427 26.9107 14.2279C26.9107 14.2279 28.6651 14.3983 29.0075 14.1001C29.0075 14.1001 29.2642 14.2279 29.3498 13.8019C29.3498 13.8019 29.4354 6.26199 29.3926 6.1342C29.3926 6.1342 29.4782 5.06924 29.4354 4.94144C29.4354 4.94144 29.3926 4.68585 28.9647 4.89884C28.9647 4.89884 29.0075 5.11183 26.4399 5.02664C26.4399 5.02664 25.4985 5.02664 25.4129 5.45262Z" fill="white"/>
<path d="M29.7349 5.32481L29.6921 13.8445C29.6921 13.8445 29.9061 14.6113 30.2484 14.5261C30.2484 14.5261 30.2912 14.3557 30.334 14.1001L30.4624 6.00639C30.4624 5.96379 30.2056 4.68584 29.7349 5.32481Z" fill="white"/>
<path d="M29.7349 5.32481L29.6921 13.8445C29.6921 13.8445 29.9061 14.6113 30.2484 14.5261C30.2484 14.5261 30.2912 14.3557 30.334 14.1001L30.4624 6.00639C30.4624 5.96379 30.2056 4.68584 29.7349 5.32481Z" stroke="black" stroke-width="0.2305"/>
<path d="M26.3971 7.88071C26.3115 7.66772 26.8678 7.62512 26.8678 7.62512L27.1246 7.66772C27.2958 7.62512 27.5097 7.71032 27.5097 7.71032C27.6809 8.00851 27.3814 8.1789 27.3814 8.1789L27.2958 8.56229C27.253 8.86048 27.2958 11.4164 27.2958 11.4164C27.3386 11.5442 27.5525 11.7998 27.5525 11.7998C27.5525 12.0554 27.253 11.9702 27.253 11.9702L26.4827 12.0128C26.226 11.9702 26.3115 11.7146 26.3115 11.7146C26.5683 11.5868 26.6539 11.0756 26.6539 11.0756V8.3919L26.3971 7.88071Z" fill="#1E1E1E"/>
<path d="M22.7598 10.394L22.717 11.246L22.9737 11.6294C23.1449 11.8424 22.8454 12.0128 22.8454 12.0128L21.9895 11.9276C21.8183 11.8424 21.9895 11.5868 21.9895 11.5868C22.2035 11.459 22.2463 11.1182 22.2463 11.1182L22.2035 9.54205L22.2463 8.39189C22.2463 8.2641 22.0323 8.0085 22.0323 8.0085C21.8611 7.96591 21.9039 7.75291 21.9039 7.75291C21.9467 7.62512 22.4174 7.71031 22.4174 7.71031H23.5728C24.6426 8.0511 24.5142 8.86047 24.5142 8.86047C24.5998 9.62725 23.744 9.96803 23.744 9.96803L23.7012 10.394L24.4715 11.6294C24.5998 11.7572 24.5998 11.8424 24.5998 11.8424C24.4715 12.1406 24.0435 11.8424 24.0435 11.8424L23.0165 10.3088C22.9309 10.181 22.7598 10.394 22.7598 10.394ZM22.8026 8.26409C22.8454 8.86047 22.8454 9.66985 22.8454 9.66985C23.3589 10.0532 23.6584 9.49945 23.6584 9.49945C24.3431 8.86047 23.6584 8.26409 23.53 8.0937C23.4017 7.92331 22.8881 8.0511 22.8881 8.0511L22.8026 8.26409Z" fill="#1E1E1E"/>
<path d="M17.1113 20.8733C17.1113 20.8733 17.2825 20.7881 17.368 20.6603C17.368 20.6603 17.9243 20.6177 18.0099 20.5325L19.8072 20.6603C19.8072 20.6603 21.5617 20.7881 22.3319 20.2343C22.3319 20.2343 22.5887 20.2343 22.8026 20.3195C22.8026 20.3195 23.1878 20.4047 23.2734 20.5751L24.3004 20.5325C24.3004 20.5325 24.8995 20.7029 24.8567 21.0863V21.5549C24.8567 21.5549 24.7283 22.5347 25.0278 22.5773H25.7981C25.7981 22.5773 26.44 22.8754 26.3544 23.2588C26.3544 23.2588 26.3972 23.8126 25.7981 23.8978C25.7981 23.8978 25.2418 24.0682 25.0278 24.0256C25.0278 24.0256 24.8567 24.2812 24.8139 24.5794L24.7711 28.1151C24.7711 28.1151 24.7283 28.4984 25.2846 28.4558C25.2846 28.4558 26.1404 28.3706 26.3544 28.8392C26.3544 28.8392 26.5684 29.606 26.1404 29.7338L25.7981 29.9042L25.1134 30.032C25.1134 30.032 24.8139 30.0746 24.7711 30.5858V31.5229C24.7711 31.5229 24.8139 32.1619 24.3004 32.1619L23.5301 32.2045C23.5301 32.2045 23.3589 32.3749 22.9738 32.2471C22.9738 32.2471 18.3523 32.3323 18.2239 32.2897L17.6676 32.3749C17.6676 32.3749 17.0685 32.9287 16.5978 32.5027L16.2127 32.2045C16.2127 32.2045 15.9559 32.2471 15.8275 32.2471C15.6991 32.2045 10.7353 32.2897 10.7353 32.2897C10.7353 32.2897 9.66545 32.4175 9.57986 32.0341C9.57986 32.0341 9.45149 30.671 9.49428 30.5006C9.49428 30.5006 9.49428 30.1172 9.23752 30.0746C9.23752 30.0746 8.16772 30.032 8.16772 29.9042C8.16772 29.9042 7.61142 29.5208 7.78259 29.0948C7.78259 29.0948 7.95376 28.541 8.55285 28.4984C8.55285 28.4984 9.40869 28.6262 9.40869 28.3706C9.40869 28.3706 9.45149 28.2003 9.45149 27.9447C9.45149 27.9447 9.49428 24.7498 9.49428 24.5368C9.49428 24.5368 9.57986 24.1108 9.23752 24.1108C9.23752 24.1108 8.85239 24.2386 8.59564 24.0682C8.59564 24.0682 7.95376 24.1108 7.82538 23.5996C7.82538 23.5996 7.69701 23.2588 7.86817 23.0032C7.86817 23.0032 8.16772 22.4069 9.02356 22.6199C9.02356 22.6199 9.49428 22.7476 9.57986 22.4069L9.53707 21.1289C9.53707 21.1289 9.40869 20.7881 10.0934 20.5751C10.0934 20.5751 10.9492 20.8307 11.2488 20.4047C11.2488 20.4047 11.5483 19.8083 11.8051 20.2343C11.8051 20.2343 12.3186 20.7029 13.7307 20.6603C13.7307 20.6603 16.1699 20.4899 16.2127 20.5751C16.2127 20.5751 16.8117 20.6603 16.9829 20.8307L17.1113 20.8733Z" fill="#1E1E1E"/>
<path d="M17.1113 20.8307C17.1113 20.8307 17.2825 20.7455 17.368 20.6177C17.368 20.6177 17.9243 20.5751 18.0099 20.4899L19.8072 20.6177C19.8072 20.6177 21.5617 20.7455 22.3319 20.1917C22.3319 20.1917 22.5887 20.1917 22.8026 20.2769C22.8026 20.2769 23.1878 20.3621 23.2734 20.5325L24.3004 20.4899C24.3004 20.4899 24.8995 20.6603 24.8567 21.0437V21.5123C24.8567 21.5123 24.7283 22.4921 25.0278 22.5347H25.7981C25.7981 22.5347 26.44 22.8328 26.3544 23.2162C26.3544 23.2162 26.3972 23.77 25.7981 23.8552C25.7981 23.8552 25.2418 24.0256 25.0278 23.983C25.0278 23.983 24.8567 24.2386 24.8139 24.5368L24.7711 28.1151C24.7711 28.1151 24.7283 28.4985 25.2846 28.4559C25.2846 28.4559 26.1404 28.3707 26.3544 28.8392C26.3544 28.8392 26.5684 29.606 26.1404 29.7338L25.7981 29.9042L25.1134 30.032C25.1134 30.032 24.8139 30.0746 24.7711 30.5858V31.5229C24.7711 31.5229 24.8139 32.1619 24.3004 32.1619L23.5301 32.2045C23.5301 32.2045 23.3589 32.3749 22.9738 32.2471C22.9738 32.2471 18.3523 32.3323 18.2239 32.2897L17.6676 32.4175C17.6676 32.4175 17.0685 32.9713 16.5978 32.5453L16.2127 32.2471C16.2127 32.2471 15.9559 32.2897 15.8275 32.2897C15.6991 32.2471 10.7353 32.3323 10.7353 32.3323C10.7353 32.3323 9.66545 32.4601 9.57986 32.0767C9.57986 32.0767 9.45149 30.7136 9.49428 30.5432C9.49428 30.5432 9.49428 30.1598 9.23752 30.1172C9.23752 30.1172 8.16772 30.0746 8.16772 29.9468C8.16772 29.9468 7.61142 29.5208 7.78259 29.1374C7.78259 29.1374 7.95376 28.5836 8.55285 28.541C8.55285 28.541 9.40869 28.6688 9.40869 28.4133C9.40869 28.4133 9.45149 28.2429 9.45149 27.9873C9.45149 27.9873 9.49428 24.7924 9.49428 24.5794C9.49428 24.5794 9.57986 24.1534 9.23752 24.1534C9.23752 24.1534 8.85239 24.2812 8.59564 24.1108C8.59564 24.1108 7.95376 24.1534 7.82538 23.6422C7.82538 23.6422 7.69701 23.3014 7.86817 23.0458C7.86817 23.0458 8.16772 22.4495 9.02356 22.6625C9.02356 22.6625 9.49428 22.7903 9.57986 22.4495L9.53707 21.1715C9.53707 21.1715 9.40869 20.8307 10.0934 20.6177C10.0934 20.6177 10.9492 20.8733 11.2488 20.4473C11.2488 20.4473 11.5483 19.851 11.8051 20.2769C11.8051 20.2769 12.3186 20.7455 13.7307 20.7029C13.7307 20.7029 16.1699 20.5325 16.2127 20.6177C16.2127 20.6177 16.8117 20.7029 16.9829 20.8733L17.1113 20.8307Z" stroke="black" stroke-width="0.2189"/>
<path d="M17.8387 31.4378C17.8387 31.4378 18.1811 31.2674 18.395 31.3526C18.609 31.3952 21.7756 31.31 21.7756 31.31C21.7756 31.31 23.145 31.4378 23.3589 31.2248L23.7013 31.097C23.7013 31.097 23.8296 30.9266 23.8296 30.7136C23.8296 30.5006 23.8724 29.7764 23.8724 29.7764L23.958 29.5208C23.958 29.5208 23.9152 29.2652 23.958 22.0661C23.958 22.0661 24.0436 21.5123 23.7013 21.1715C23.7013 21.1715 23.7013 20.9585 23.8296 21.0011C23.958 21.0437 23.8724 21.0437 23.8724 21.0437C23.8724 21.0437 24.3431 20.9159 24.4287 21.0863C24.4287 21.0863 24.6427 21.7253 24.4715 22.1087C24.4715 22.1087 24.4287 22.8755 24.8138 22.8755C24.8138 22.8755 24.985 23.0458 25.2846 22.9606C25.2846 22.9606 25.9692 23.0458 25.9692 23.2588C25.9692 23.2588 25.9692 23.7274 25.4985 23.6422L24.8566 23.6848C24.8566 23.6848 24.4287 23.77 24.4715 24.2812C24.5143 24.7924 24.4287 28.4559 24.4287 28.4559C24.4287 28.4559 24.4287 28.8818 25.1134 28.8818C25.1134 28.8818 25.9692 28.8392 25.9692 29.0948C25.9692 29.0948 26.1832 29.6486 25.5841 29.6486C25.5841 29.6486 24.4287 29.606 24.5143 29.9468C24.5143 29.9468 24.4287 30.7136 24.3859 30.8414C24.3859 30.8414 24.5143 31.4803 24.3431 31.5655C24.3431 31.5655 24.2576 31.9063 23.5301 31.8637C23.5301 31.8637 18.8657 31.8211 18.1383 31.9063C18.1383 31.8637 17.7103 31.8211 17.8387 31.4378Z" fill="white"/>
<path d="M16.9828 30.9265C16.9828 30.9265 17.4535 31.0117 17.4535 31.4377C17.4535 31.8637 17.4963 32.1193 17.1968 32.1619C16.94 32.2045 16.6405 32.1193 16.5549 31.7785C16.4693 31.4377 16.5977 31.0117 16.9828 30.9265Z" fill="white"/>
<path d="M17.5391 30.7135C17.5391 30.7135 18.0099 30.3728 18.2238 30.458C18.2238 30.458 20.7058 30.6283 21.4332 30.5006C22.2035 30.3728 21.7328 30.458 21.7328 30.458C21.7328 30.458 22.3747 30.458 22.5886 30.2024C22.5886 30.2024 22.7598 30.1598 22.8882 30.3302L23.2733 30.7561C23.2733 30.7561 23.3161 31.0117 22.8454 31.0117C22.8454 31.0117 18.4378 31.0117 18.3094 31.0543C18.2666 31.0543 17.4536 31.1821 17.5391 30.7135Z" fill="white"/>
<path d="M17.5391 30.7135C17.5391 30.7135 18.0099 30.3728 18.2238 30.458C18.2238 30.458 20.7058 30.6283 21.4332 30.5006C22.2035 30.3728 21.7328 30.458 21.7328 30.458C21.7328 30.458 22.3747 30.458 22.5886 30.2024C22.5886 30.2024 22.7598 30.1598 22.8882 30.3302L23.2733 30.7561C23.2733 30.7561 23.3161 31.0117 22.8454 31.0117C22.8454 31.0117 18.4378 31.0117 18.3094 31.0543C18.2666 31.0543 17.4536 31.1821 17.5391 30.7135Z" stroke="black" stroke-width="0.2305"/>
<path d="M11.1203 21.1715C11.1203 21.1715 11.2915 21.1715 11.2915 21.5123L11.2487 29.6486C11.2487 29.6486 11.3343 30.2024 10.8636 30.5432C10.8636 30.5432 10.6068 30.8414 10.6068 30.3728L10.7352 22.0661C10.6924 22.0235 10.7352 21.4271 11.1203 21.1715Z" fill="white"/>
<path d="M11.1203 21.1715C11.1203 21.1715 11.2915 21.1715 11.2915 21.5123L11.2487 29.6486C11.2487 29.6486 11.3343 30.2024 10.8636 30.5432C10.8636 30.5432 10.6068 30.8414 10.6068 30.3728L10.7352 22.0661C10.6924 22.0235 10.7352 21.4271 11.1203 21.1715Z" stroke="black" stroke-width="0.2305"/>
<path d="M10.6924 21.2141C10.6924 21.2141 10.3501 21.8105 10.3929 21.9383L10.3501 23.7274C10.3501 23.7274 10.3073 24.8776 10.3501 25.0054C10.3929 25.1331 10.3073 28.541 10.3073 28.541C10.3073 28.541 10.2645 29.18 10.3073 29.393V30.8413C10.3073 30.8413 10.2645 31.4803 10.7352 31.3099C10.7352 31.3099 15.4851 31.1821 15.7847 31.2673C15.7847 31.2673 16.2126 31.3525 16.0414 31.5655C16.0414 31.5655 16.0414 31.7359 15.7419 31.6933C15.7419 31.6933 13.5167 31.9063 11.4627 31.8211C11.4627 31.8211 10.0933 31.9063 10.0077 31.7359C10.0077 31.7359 9.79377 31.6933 9.79377 30.9265C9.79377 30.9265 9.79377 30.2024 9.75098 30.0746C9.75098 30.0746 9.79377 29.6912 9.1091 29.606C9.1091 29.606 8.16767 29.7764 8.12488 29.2226C8.12488 29.2226 8.25325 28.8392 9.19468 28.8818C9.19468 28.8818 9.87936 29.0096 9.75098 28.4558L9.83657 24.4516C9.83657 24.4516 9.92215 23.77 9.45144 23.7274C9.45144 23.7274 9.02351 23.6848 8.89514 23.77C8.89514 23.77 8.12488 23.77 8.16767 23.3014C8.16767 23.3014 8.42442 22.8328 9.23747 22.918C9.23747 22.918 9.83657 23.0458 9.87936 22.3642C9.87936 22.3642 9.83657 21.0011 10.1789 20.9159C10.1789 21.0011 10.8636 21.0011 10.6924 21.2141Z" fill="white"/>
<path d="M11.5054 30.1172C11.5054 30.1172 11.8905 30.5006 12.4896 30.5006L16.1698 30.5432C16.1698 30.5432 16.5977 30.5858 16.5549 30.7988C16.5549 30.7988 16.5121 31.1396 15.9986 31.0118L11.5482 30.9692L11.0775 31.0118C11.0775 31.0118 10.7351 30.9692 11.2487 30.3302L11.5054 30.1172Z" fill="white"/>
<path d="M11.5054 30.1172C11.5054 30.1172 11.8905 30.5006 12.4896 30.5006L16.1698 30.5432C16.1698 30.5432 16.5977 30.5858 16.5549 30.7988C16.5549 30.7988 16.5121 31.1396 15.9986 31.0118L11.5482 30.9692L11.0775 31.0118C11.0775 31.0118 10.7351 30.9692 11.2487 30.3302L11.5054 30.1172Z" stroke="black" stroke-width="0.2305"/>
<path d="M22.8453 29.7764C22.8453 29.7764 23.1877 30.4154 23.3161 30.5006C23.3161 30.5006 23.6156 30.8414 23.53 30.245L23.5728 22.4921C23.5728 22.4921 23.4872 22.2365 23.5728 21.8105L23.2305 21.2141C23.2305 21.2141 22.8881 20.9585 22.8881 21.3845L22.8453 29.6486V29.7764Z" fill="white"/>
<path d="M22.8453 29.7764C22.8453 29.7764 23.1877 30.4154 23.3161 30.5006C23.3161 30.5006 23.6156 30.8414 23.53 30.245L23.5728 22.4921C23.5728 22.4921 23.4872 22.2365 23.5728 21.8105L23.2305 21.2141C23.2305 21.2141 22.8881 20.9585 22.8881 21.3845L22.8453 29.6486V29.7764Z" stroke="black" stroke-width="0.2305"/>
<path d="M16.8545 26.0703C16.8545 26.0703 16.8973 26.7093 16.8117 27.3482C16.7689 27.689 16.9401 29.2652 16.7689 30.0745C16.7689 30.0745 16.7261 30.3301 16.1698 30.1171C16.1698 30.1171 12.7037 30.2023 12.6181 30.0745C12.6181 30.0745 11.6766 30.1171 11.5911 29.606C11.5911 29.606 11.7194 25.8999 11.6339 25.7721C11.6339 25.7721 11.5911 23.77 11.6339 23.557C11.6339 23.557 11.7194 21.6826 11.6766 21.4696C11.6766 21.4696 11.7194 21.0437 11.6339 20.8307C11.6339 20.8307 11.6339 20.5751 12.1046 20.7029C12.1046 20.7029 12.2757 21.0011 13.1744 20.8733C13.1744 20.8733 13.8163 20.9585 14.4581 20.9159C14.4581 20.9159 15.8275 20.7881 16.1698 20.9159C16.1698 20.9159 16.7261 20.7881 16.8545 21.3844L16.8117 23.0458L16.9829 23.5996L17.154 23.4718L17.2396 23.0458L17.2824 21.2566C17.2824 21.2566 17.4108 20.9159 17.8387 20.8733C17.8387 20.8733 18.5234 20.7881 18.609 20.8307C18.6946 20.8733 20.1923 20.9585 20.5774 20.8733C20.9626 20.7881 21.0481 21.1288 22.2891 20.5325C22.2891 20.5325 22.6314 20.5751 22.6314 20.7881C22.6314 20.7881 22.5031 23.0884 22.6314 23.5144C22.6314 23.5144 22.6315 27.7316 22.5459 28.0298L22.5887 29.393C22.5887 29.393 22.6315 29.9893 21.69 30.0319C21.69 30.0319 22.2891 30.1171 18.5662 29.9893C18.5662 29.9893 17.9671 29.9467 17.3252 30.2449C17.3252 30.2449 17.1968 30.2023 17.1968 29.8615C17.1968 29.8615 17.3252 28.5836 17.1968 27.3482L17.154 25.9851L16.8545 26.0703Z" fill="white"/>
<path d="M14.4153 24.1533C14.4153 24.1533 14.5009 26.1555 14.4153 26.4111L14.3725 26.837C14.3725 26.837 14.5009 27.1352 14.6293 27.2204C14.6293 27.2204 14.7577 27.6038 14.4581 27.5612C14.4581 27.5612 13.7734 27.5186 13.6023 27.5186C13.6023 27.5186 13.2171 27.5186 13.6023 27.05C13.6023 27.05 13.7306 26.8796 13.6878 26.3685C13.6878 26.3685 13.6878 24.1107 13.7306 23.9829C13.7306 23.9829 13.7734 23.6848 13.6023 23.5996L13.2599 23.6422L12.8748 24.0255C12.8748 24.0255 12.7892 24.4089 12.618 23.9829V23.77L12.8748 23.131L13.046 23.0884C13.046 23.0884 13.3027 23.2588 13.5167 23.3014H14.8004L15.2712 23.0884C15.2712 23.0884 15.4423 23.131 15.3995 23.344C15.3995 23.344 15.4851 23.9829 15.1428 24.0255C15.1428 24.0255 14.9288 23.9403 14.8004 23.6422C14.8004 23.7274 14.4581 23.557 14.4153 24.1533Z" fill="#1E1E1E"/>
<path d="M20.4062 23.4292C20.4062 23.4292 19.3792 23.344 19.3364 24.4515C19.3364 24.4515 19.208 25.2183 20.3634 25.6869C20.3634 25.6869 21.2193 26.0703 21.1337 26.5814C21.1337 26.5814 21.0053 27.5186 20.1494 27.05C20.1494 27.05 19.7215 26.837 19.7643 26.5814C19.7643 26.5814 19.6359 26.2833 19.4648 26.3259C19.4648 26.3259 19.2936 26.3685 19.3792 27.263C19.3792 27.263 19.3792 27.6038 19.7643 27.263L19.9783 27.3056C19.9783 27.3056 20.7057 27.902 21.3476 27.1778C21.3476 27.1778 22.0323 26.5388 21.5188 25.8147C21.5188 25.8147 21.1765 25.2609 20.5346 25.0053C20.5346 25.0053 19.9355 24.7497 19.8071 24.2811C19.8071 24.2811 19.9783 23.4718 20.7057 23.8977C20.7057 23.8977 20.9625 24.2385 21.1337 24.2811C21.1337 24.2811 21.3476 24.2811 21.3048 23.8125L21.262 23.4292C21.262 23.4292 21.2193 23.131 20.8341 23.4292C20.8341 23.4292 20.4918 23.557 20.4062 23.4292Z" fill="#1E1E1E"/>
<path d="M17.1112 22.8754C17.2824 23.0032 17.3252 23.3014 17.3252 23.3014C17.8815 24.7497 18.3094 26.7944 18.3094 26.7944C18.4378 27.05 18.6945 27.263 18.6945 27.263C19.1652 27.4334 18.6945 27.5612 18.6945 27.5612C18.5234 27.6464 17.8815 27.5186 17.8815 27.5186C17.5391 27.476 17.7103 27.3482 17.7103 27.3482C17.8387 27.2204 17.7531 26.6666 17.7531 26.6666C17.7103 26.4537 17.4963 26.1129 17.4963 26.1129C17.368 26.0703 17.1968 26.2833 17.1968 26.2833C17.1968 26.2833 16.8972 26.4111 16.8545 26.2833C16.8117 26.1555 16.6405 26.0703 16.6405 26.0703C16.2982 26.0703 16.1698 26.8796 16.1698 26.8796C16.3409 27.5612 16.1698 27.4334 16.1698 27.4334C15.9986 27.6464 15.4851 27.476 15.4851 27.476C15.2284 27.4334 15.3995 27.2204 15.3995 27.2204C15.6991 27.1778 15.7846 26.837 15.7846 26.837C15.913 26.6666 16.7689 23.131 16.7689 23.131C16.8545 23.0458 16.8972 22.7476 17.1112 22.8754ZM16.6833 24.6645C16.6405 24.7923 16.4693 25.5591 16.4693 25.5591L16.6405 25.8147C16.6405 25.8147 17.0684 25.8573 17.2396 25.8573C17.4108 25.8573 17.4108 25.7295 17.4108 25.6017C17.4108 25.4739 17.1112 24.6645 17.1112 24.6645L16.9828 24.4941L16.6833 24.6645Z" fill="#1E1E1E"/>
<path d="M9.75092 16.3578C9.75092 16.3578 9.45138 17.295 8.12482 16.3152L3.58885 16.23C3.58885 16.23 2.98976 16.4004 2.90417 15.8041C2.90417 15.8041 3.03255 14.5687 2.94696 14.4409C2.94696 14.4409 2.98976 14.1001 2.39067 14.1001C2.39067 14.1001 1.49203 14.2279 1.44924 13.4185C1.44924 13.4185 1.27807 12.5666 2.56183 12.5666C2.56183 12.5666 2.94696 12.737 2.98976 12.2258C2.98976 12.2258 2.94696 8.73271 2.94696 8.43452C2.94696 8.43452 3.07534 8.09373 2.43346 8.05113C2.43346 8.05113 1.53482 8.22153 1.44924 7.62515C1.44924 7.62515 1.40644 6.73058 2.00554 6.68798C2.00554 6.68798 2.733 6.73058 2.86138 6.56019C2.86138 6.56019 3.03255 6.64538 2.98976 6.00641L3.03255 4.89885C3.03255 4.89885 3.11813 4.60066 3.58885 4.64325C3.58885 4.64325 4.44469 4.68585 4.53027 4.60066C4.53027 4.60066 4.70144 4.34506 4.78703 4.25987C4.78703 4.25987 5.21495 4.21727 5.30053 4.34506C5.30053 4.34506 5.94242 4.77105 8.42436 4.60066C8.42436 4.60066 8.80949 4.60066 8.89508 4.72845C8.89508 4.72845 9.36579 5.06924 9.62255 4.68585C9.62255 4.68585 10.0077 4.60066 11.2486 4.64325C11.2486 4.64325 12.5752 4.98404 13.4738 4.25987L13.7734 4.30247C13.7734 4.30247 14.1585 4.94144 14.4153 4.72845C14.4153 4.72845 15.2283 4.64325 15.3567 4.81365C15.3567 4.81365 15.6135 5.19703 15.4851 6.262C15.4851 6.262 15.3139 6.73058 16.127 6.73058C16.127 6.73058 17.0256 6.56019 16.8972 7.41216C16.8972 7.41216 17.154 8.34932 15.6562 8.22153C15.6562 8.22153 15.4851 8.47712 15.4851 8.69011C15.4851 8.69011 15.4423 11.7572 15.4423 12.098C15.4423 12.098 15.3995 12.5666 16.0842 12.5666C16.0842 12.5666 16.94 12.524 16.9828 13.2908C16.9828 13.2908 17.1112 14.3131 15.8274 14.1427C15.8274 14.1427 15.4423 14.1853 15.3995 14.4409L15.3139 15.8041C15.3139 15.8041 15.3567 16.4856 14.5864 16.3152C14.4581 16.3152 10.35 16.4004 10.0077 16.2726C10.0077 16.2726 9.83651 16.23 9.75092 16.3578Z" fill="#1E1E1E"/>
<path d="M9.75092 16.3578C9.75092 16.3578 9.45138 17.295 8.12482 16.3152L3.58885 16.23C3.58885 16.23 2.98976 16.4004 2.90417 15.8041C2.90417 15.8041 3.03255 14.5687 2.94696 14.4409C2.94696 14.4409 2.98976 14.1001 2.39067 14.1001C2.39067 14.1001 1.49203 14.2279 1.44924 13.4185C1.44924 13.4185 1.27807 12.5666 2.56183 12.5666C2.56183 12.5666 2.94696 12.737 2.98976 12.2258C2.98976 12.2258 2.94696 8.73271 2.94696 8.43452C2.94696 8.43452 3.07534 8.09373 2.43346 8.05113C2.43346 8.05113 1.53482 8.22153 1.44924 7.62515C1.44924 7.62515 1.40644 6.73058 2.00554 6.68798C2.00554 6.68798 2.733 6.73058 2.86138 6.56019C2.86138 6.56019 3.03255 6.64538 2.98976 6.00641L3.03255 4.89885C3.03255 4.89885 3.11813 4.60066 3.58885 4.64325C3.58885 4.64325 4.44469 4.68585 4.53027 4.60066C4.53027 4.60066 4.70144 4.34506 4.78703 4.25987C4.78703 4.25987 5.21495 4.21727 5.30053 4.34506C5.30053 4.34506 5.94242 4.77105 8.42436 4.60066C8.42436 4.60066 8.80949 4.60066 8.89508 4.72845C8.89508 4.72845 9.36579 5.06924 9.62255 4.68585C9.62255 4.68585 10.0077 4.60066 11.2486 4.64325C11.2486 4.64325 12.5752 4.98404 13.4738 4.25987L13.7734 4.30247C13.7734 4.30247 14.1585 4.94144 14.4153 4.72845C14.4153 4.72845 15.2283 4.64325 15.3567 4.81365C15.3567 4.81365 15.6135 5.19703 15.4851 6.262C15.4851 6.262 15.3139 6.73058 16.127 6.73058C16.127 6.73058 17.0256 6.56019 16.8972 7.41216C16.8972 7.41216 17.154 8.34932 15.6562 8.22153C15.6562 8.22153 15.4851 8.47712 15.4851 8.69011C15.4851 8.69011 15.4423 11.7572 15.4423 12.098C15.4423 12.098 15.3995 12.5666 16.0842 12.5666C16.0842 12.5666 16.94 12.524 16.9828 13.2908C16.9828 13.2908 17.1112 14.3131 15.8274 14.1427C15.8274 14.1427 15.4423 14.1853 15.3995 14.4409L15.3139 15.8041C15.3139 15.8041 15.3567 16.4856 14.5864 16.3152C14.4581 16.3152 10.35 16.4004 10.0077 16.2726C10.0077 16.2726 9.83651 16.23 9.75092 16.3578Z" stroke="black" stroke-width="0.2189"/>
<path d="M4.65873 5.23963C4.65873 5.23963 4.70152 5.79341 4.70152 5.92121C4.70152 6.049 4.61594 13.7167 4.61594 13.7167C4.61594 13.7167 4.70152 14.3131 4.18801 14.6113C4.18801 14.6113 4.05964 14.6539 4.01685 14.2705L4.05964 6.1768C4.10243 6.1768 4.14522 5.19703 4.65873 5.23963Z" fill="white"/>
<path d="M4.65873 5.23963C4.65873 5.23963 4.70152 5.79341 4.70152 5.92121C4.70152 6.049 4.61594 13.7167 4.61594 13.7167C4.61594 13.7167 4.70152 14.3131 4.18801 14.6113C4.18801 14.6113 4.05964 14.6539 4.01685 14.2705L4.05964 6.1768C4.10243 6.1768 4.14522 5.19703 4.65873 5.23963Z" stroke="black" stroke-width="0.2305"/>
<path d="M3.76008 14.6966C3.76008 14.6966 3.80287 7.11402 3.80287 6.94363C3.76008 6.81583 3.80287 7.07142 3.80287 7.07142C3.80287 7.07142 3.71729 5.75087 4.05962 5.19709C4.05962 5.19709 3.93125 4.72851 3.33216 5.32489V6.43245C3.33216 6.43245 3.33216 7.07142 2.77586 7.02883C2.77586 7.02883 2.13397 6.98623 1.83443 7.28442C1.83443 7.28442 1.66326 7.8808 2.30514 7.753C2.30514 7.753 3.28936 7.753 3.33216 8.13639L3.28936 12.2258C3.28936 12.2258 3.50332 12.9074 2.73307 12.9074C2.73307 12.9074 1.83443 12.8648 1.83443 13.4186C1.83443 13.4186 2.0056 13.8872 2.81865 13.7594C2.81865 13.7594 3.37495 13.8872 3.37495 14.3984V15.4207C3.37495 15.4207 3.33216 15.8467 3.84566 15.8467H8.0393C8.0393 15.8467 8.25326 15.8893 8.25326 15.5911C8.25326 15.5911 8.21047 15.3781 7.91092 15.3781L4.40196 15.3355C4.40196 15.3355 3.80287 15.5059 3.76008 14.6966Z" fill="white"/>
<path d="M4.48754 14.7391C4.48754 14.7391 4.35916 15.1225 4.78708 15.0373H7.56857L8.33883 15.2077C8.33883 15.2077 9.10909 15.0373 8.33883 14.5687C8.33883 14.5687 5.85689 14.6113 5.64292 14.5261C5.64292 14.5261 5.12942 14.3983 5.00104 14.3557C5.00104 14.3983 4.74429 14.2705 4.48754 14.7391Z" fill="white"/>
<path d="M4.48754 14.7391C4.48754 14.7391 4.35916 15.1225 4.78708 15.0373H7.56857L8.33883 15.2077C8.33883 15.2077 9.10909 15.0373 8.33883 14.5687C8.33883 14.5687 5.85689 14.6113 5.64292 14.5261C5.64292 14.5261 5.12942 14.3983 5.00104 14.3557C5.00104 14.3983 4.74429 14.2705 4.48754 14.7391Z" stroke="black" stroke-width="0.2305"/>
<path d="M9.10911 15.1225C9.10911 15.1225 8.59561 15.1225 8.6384 15.8041C8.6384 15.8041 8.68119 16.3153 9.23749 16.3153C9.23749 16.3153 9.7082 16.2301 9.66541 15.6763C9.66541 15.6763 9.36586 14.9947 9.10911 15.1225Z" fill="white"/>
<path d="M9.49418 14.8243C9.49418 14.8243 9.75093 14.5687 9.87931 14.5687C9.87931 14.5687 12.5752 14.8243 13.0459 14.4835C13.0459 14.4835 13.4311 14.3983 13.5594 14.4835C13.5594 14.4835 13.9446 14.8243 13.9446 14.9947C13.9446 14.9947 13.9018 15.2503 13.4311 15.1225C13.4311 15.1225 10.35 15.1651 10.2216 15.1651C10.2644 15.1225 9.4086 15.3355 9.49418 14.8243Z" fill="white"/>
<path d="M9.49418 14.8243C9.49418 14.8243 9.75093 14.5687 9.87931 14.5687C9.87931 14.5687 12.5752 14.8243 13.0459 14.4835C13.0459 14.4835 13.4311 14.3983 13.5594 14.4835C13.5594 14.4835 13.9446 14.8243 13.9446 14.9947C13.9446 14.9947 13.9018 15.2503 13.4311 15.1225C13.4311 15.1225 10.35 15.1651 10.2216 15.1651C10.2644 15.1225 9.4086 15.3355 9.49418 14.8243Z" stroke="black" stroke-width="0.2305"/>
<path d="M9.92212 15.6337C9.92212 15.6337 9.92212 15.4207 10.3072 15.4207L14.1158 15.3781C14.1158 15.3781 14.4581 15.5485 14.4581 14.9095C14.4581 14.9095 14.5865 11.9702 14.6293 8.73276C14.6293 7.75299 14.6721 6.77323 14.6293 5.83606C14.6293 5.83606 14.5437 5.45268 14.4581 5.36748C14.4581 5.36748 14.4581 4.94149 14.9288 5.11189C14.9288 5.11189 15.3139 5.15449 15.2284 5.75086L15.2711 6.68803C15.2711 6.68803 15.1856 7.07142 15.913 6.98622C15.913 6.98622 16.6405 7.07142 16.6833 7.36961C16.6833 7.36961 16.8972 7.92339 16.0414 7.83819H15.3995C15.3995 7.83819 15.1428 8.00859 15.2284 8.30678L15.1428 12.2258C15.1428 12.2258 15.1 12.9074 15.7419 12.8648C15.7419 12.8648 16.4265 12.8222 16.5549 13.0352C16.5549 13.0352 17.0256 13.7168 15.9986 13.6742C15.9986 13.6742 15.3567 13.6316 15.2284 13.7594C15.2284 13.7594 15.1428 13.8872 15.0572 15.1651C15.0572 15.1651 15.1 15.9319 14.5437 15.8467C14.5437 15.8467 10.778 15.8893 10.4356 15.8041C10.35 15.8467 9.96491 15.9319 9.92212 15.6337Z" fill="white"/>
<path d="M5.04388 5.02659L4.95829 13.6741C4.95829 13.6741 4.9155 14.0575 5.60017 14.1427C5.60017 14.1427 6.37043 14.2279 6.5844 14.1427C6.5844 14.1427 7.0979 14.1001 8.42446 14.1853C8.42446 14.1853 8.7668 14.5261 8.7668 14.1001C8.7668 14.1001 8.98076 7.11391 8.89517 5.62297C8.89517 5.62297 8.85238 4.98399 8.42446 4.98399C8.42446 4.98399 6.37043 5.15438 6.19927 4.98399L5.38621 4.771C5.34342 4.771 5.04388 4.81359 5.04388 5.02659Z" fill="white"/>
<path d="M13.6451 5.32481L13.6023 13.8445C13.6023 13.8445 13.8163 14.6113 14.1586 14.5261C14.1586 14.5261 14.2014 14.3557 14.2442 14.1001L14.3726 6.00639C14.3726 5.96379 14.1158 4.68584 13.6451 5.32481Z" fill="white"/>
<path d="M13.6451 5.32481L13.6023 13.8445C13.6023 13.8445 13.8163 14.6113 14.1586 14.5261C14.1586 14.5261 14.2014 14.3557 14.2442 14.1001L14.3726 6.00639C14.3726 5.96379 14.1158 4.68584 13.6451 5.32481Z" stroke="black" stroke-width="0.2305"/>
<path d="M9.32309 5.41002C9.32309 5.41002 9.23751 9.45688 9.2803 9.62727L9.23751 13.0352L9.10913 14.2279C9.10913 14.2279 9.2803 14.4835 9.40868 14.3131C9.40868 14.3131 10.2645 14.1001 10.8208 14.1853C10.8208 14.1853 12.5753 14.3557 12.9176 14.0575C12.9176 14.0575 13.1744 14.1853 13.26 13.7593C13.26 13.7593 13.3883 6.21939 13.3028 6.0916C13.3028 6.0916 13.4311 5.02663 13.3456 4.89884C13.3456 4.89884 13.3028 4.64325 12.8748 4.85624C12.8748 4.85624 12.9176 5.06923 10.3501 4.98403C10.3501 4.98403 9.36588 4.98403 9.32309 5.41002Z" fill="white"/>
<path d="M8.51 7.88072L8.25325 8.3919C8.25325 8.3919 7.65416 10.9904 7.35461 11.5442C7.35461 11.5442 7.31182 12.098 6.84111 11.672C6.84111 11.672 5.7713 8.3493 5.72851 8.2641L5.38617 8.00851C5.38617 8.00851 5.17221 7.71032 5.55734 7.66772L6.54156 7.71032C6.54156 7.71032 6.8839 7.96591 6.41319 8.2641C6.41319 8.2641 6.45598 8.69009 7.05507 10.3514C7.05507 10.3514 7.22624 10.9904 7.39741 10.5218L7.9537 8.60489L7.78254 8.05111C7.78254 8.05111 7.61137 7.79552 7.86812 7.75292C7.86812 7.75292 8.42442 7.66772 8.51 7.88072Z" fill="#1E1E1E"/>
<path d="M10.0505 8.3493L10.0077 11.2034L9.92211 11.4164C9.92211 11.4164 9.66536 11.7572 9.83653 11.7998C9.83653 11.7998 9.57977 11.9702 11.5482 11.9702C11.5482 11.9702 12.3185 12.098 12.1045 11.1182C12.1045 11.1182 12.0189 10.7774 11.7622 11.2886C11.7622 11.2886 11.6766 11.7146 10.6924 11.5868C10.6924 11.5868 10.4784 11.4164 10.4784 11.2034V10.0106C10.4784 10.0106 10.4356 9.71245 10.9063 9.75505C10.9063 9.75505 11.4198 10.0958 11.5054 9.92545C11.5054 9.92545 11.6766 9.49946 11.5054 9.24387C11.5054 9.24387 11.2487 9.20127 11.2487 9.32907C11.2487 9.32907 11.0775 9.66986 10.6068 9.45686C10.6068 9.45686 10.3928 9.03088 10.5212 8.69009C10.5212 8.69009 10.4784 8.00851 10.9063 8.05111C10.9063 8.05111 11.4626 8.17891 11.5054 8.3067C11.5054 8.3067 11.6338 8.64749 11.7622 8.2641L11.6338 7.79552C11.6338 7.79552 11.5482 7.62513 11.4198 7.66773C11.4198 7.66773 10.5212 7.79552 10.3928 7.71032L9.75094 7.75292C9.75094 7.75292 9.66536 8.00851 9.9649 8.13631C9.9649 8.17891 10.0505 8.22151 10.0505 8.3493Z" fill="#1E1E1E"/>
</g>
<defs>
<clipPath id="clip0_3356_2755">
<rect width="160" height="40" fill="white" transform="translate(0.33667)"/>
</clipPath>
</defs>
</svg>
