<svg width="14" height="14" viewBox="0 0 14 14" fill="none" xmlns="http://www.w3.org/2000/svg">
<g clip-path="url(#clip0_555_828)">
<path d="M7.00021 1.3774C8.83235 1.3774 9.04932 1.38544 9.76985 1.41758C10.4395 1.44704 10.8011 1.55954 11.0422 1.65329C11.3609 1.77651 11.5913 1.92651 11.8297 2.1649C12.0707 2.40597 12.2181 2.63365 12.3413 2.9524C12.435 3.19347 12.5475 3.55776 12.577 4.22472C12.6091 4.94793 12.6172 5.1649 12.6172 6.99436C12.6172 8.82651 12.6091 9.04347 12.577 9.76401C12.5475 10.4336 12.435 10.7953 12.3413 11.0363C12.2181 11.3551 12.0681 11.5854 11.8297 11.8238C11.5886 12.0649 11.3609 12.2122 11.0422 12.3354C10.8011 12.4292 10.4368 12.5417 9.76985 12.5711C9.04664 12.6033 8.82967 12.6113 7.00021 12.6113C5.16807 12.6113 4.9511 12.6033 4.23057 12.5711C3.56092 12.5417 3.19932 12.4292 2.95824 12.3354C2.63949 12.2122 2.40914 12.0622 2.17074 11.8238C1.92967 11.5828 1.78235 11.3551 1.65914 11.0363C1.56539 10.7953 1.45289 10.431 1.42342 9.76401C1.39128 9.04079 1.38324 8.82383 1.38324 6.99436C1.38324 5.16222 1.39128 4.94526 1.42342 4.22472C1.45289 3.55508 1.56539 3.19347 1.65914 2.9524C1.78235 2.63365 1.93235 2.40329 2.17074 2.1649C2.41182 1.92383 2.63949 1.77651 2.95824 1.65329C3.19932 1.55954 3.5636 1.44704 4.23057 1.41758C4.9511 1.38544 5.16807 1.3774 7.00021 1.3774ZM7.00021 0.142578C5.1386 0.142578 4.90557 0.150614 4.17432 0.182757C3.44574 0.2149 2.94485 0.332757 2.51092 0.501507C2.05824 0.678292 1.67521 0.911328 1.29485 1.29436C0.911816 1.67472 0.678781 2.05776 0.501995 2.50776C0.333245 2.94436 0.215388 3.44258 0.183245 4.17115C0.151102 4.90508 0.143066 5.13811 0.143066 6.99972C0.143066 8.86133 0.151102 9.09436 0.183245 9.82561C0.215388 10.5542 0.333245 11.0551 0.501995 11.489C0.678781 11.9417 0.911816 12.3247 1.29485 12.7051C1.67521 13.0854 2.05825 13.3211 2.50825 13.4953C2.94485 13.664 3.44307 13.7819 4.17164 13.814C4.90289 13.8461 5.13592 13.8542 6.99753 13.8542C8.85914 13.8542 9.09217 13.8461 9.82342 13.814C10.552 13.7819 11.0529 13.664 11.4868 13.4953C11.9368 13.3211 12.3199 13.0854 12.7002 12.7051C13.0806 12.3247 13.3163 11.9417 13.4904 11.4917C13.6591 11.0551 13.777 10.5569 13.8091 9.82829C13.8413 9.09704 13.8493 8.86401 13.8493 7.0024C13.8493 5.14079 13.8413 4.90776 13.8091 4.17651C13.777 3.44794 13.6591 2.94704 13.4904 2.51311C13.3216 2.05776 13.0886 1.67472 12.7056 1.29436C12.3252 0.914007 11.9422 0.678292 11.4922 0.504185C11.0556 0.335435 10.5574 0.217578 9.82878 0.185435C9.09485 0.150614 8.86182 0.142578 7.00021 0.142578Z" fill="#101828"/>
<path d="M7.00035 3.47754C5.05571 3.47754 3.47803 5.05522 3.47803 6.99986C3.47803 8.9445 5.05571 10.5222 7.00035 10.5222C8.94499 10.5222 10.5227 8.9445 10.5227 6.99986C10.5227 5.05522 8.94499 3.47754 7.00035 3.47754ZM7.00035 9.28468C5.73874 9.28468 4.71553 8.26147 4.71553 6.99986C4.71553 5.73825 5.73874 4.71504 7.00035 4.71504C8.26196 4.71504 9.28517 5.73825 9.28517 6.99986C9.28517 8.26147 8.26196 9.28468 7.00035 9.28468Z" fill="#101828"/>
<path d="M11.484 3.33795C11.484 3.79331 11.1144 4.16027 10.6617 4.16027C10.2063 4.16027 9.83936 3.79063 9.83936 3.33795C9.83936 2.88259 10.209 2.51562 10.6617 2.51562C11.1144 2.51562 11.484 2.88527 11.484 3.33795Z" fill="#101828"/>
</g>
<defs>
<clipPath id="clip0_555_828">
<rect width="13.7143" height="13.7143" fill="white" transform="translate(0.143066 0.142578)"/>
</clipPath>
</defs>
</svg>
