<svg width="94" height="52" viewBox="0 0 94 52" fill="none" xmlns="http://www.w3.org/2000/svg">
<g clip-path="url(#clip0_944_10030)">
<path d="M6.30188 47.2681C5.35824 47.1768 3.91048 47.1444 3.91048 45.6768V27.2988H0V46.04C0 48.0387 1.14461 51.063 5.41362 50.8084L6.30188 47.2681ZM17.3561 47.6499C16.9525 47.8226 15.9725 47.9669 15.1362 47.9669C13.0892 47.9669 11.8528 47.1286 11.7878 45.9203C11.6843 44.0012 14.3498 43.4046 17.3561 43.7639V47.6499ZM21.0753 49.9264V40.3545C21.0753 36.376 18.8553 34.819 14.8768 34.819C12.6279 34.819 10.09 35.4805 8.79263 36.0281L9.74108 39.144C10.8365 38.6829 12.9632 38.1347 14.4337 38.1347C16.2213 38.1347 17.3561 38.4353 17.3561 40.0492V40.5823C12.3969 40.244 7.83934 41.6383 7.84818 45.8763C7.85569 49.395 10.5809 51.0508 15.2515 51.0508C17.5869 51.0508 19.9221 50.5319 21.0753 49.9264ZM35.1965 50.763V47.4122H27.8129L35.195 38.136L35.1942 35.1225H23.4673L23.468 38.4059H30.3283L23.4687 47.5722V50.763H35.1965ZM41.7077 31.3703C41.7077 30.1881 40.6986 29.1069 39.4589 29.1069C38.2191 29.1069 37.2101 30.1881 37.2101 31.3703C37.2101 32.5525 38.124 33.5358 39.4589 33.5358C40.778 33.5358 41.7077 32.5525 41.7077 31.3703ZM41.4194 50.763V35.1225H37.4983V50.763H41.4194ZM55.7501 46.2361C55.7501 43.0935 53.0353 42.1211 50.863 41.375C49.181 40.7974 47.8523 40.2816 48.0526 39.239C48.167 38.6432 48.8747 38.0466 50.5969 38.0688C51.6975 38.083 53.2484 38.429 53.9516 38.8326L55.2915 35.9434C54.0374 35.3092 52.3248 34.819 50.2149 34.819C46.3613 34.819 44.0492 36.8202 44.0492 39.559C44.0492 42.6152 46.6207 43.7037 48.7036 44.4146C50.1678 44.9141 51.573 45.1868 51.573 46.34C51.573 47.3779 50.5392 47.7812 49.0407 47.7812C47.848 47.7812 46.0132 47.2623 45.1874 46.7721L43.7315 49.9264C44.9549 50.5319 47.0037 51.0508 49.0526 51.0508C53.4563 51.0508 55.7501 49.148 55.7501 46.2361Z" fill="#222222"/>
<path d="M79.0133 50.7628V40.0088C79.0133 36.8663 76.9374 34.877 73.5066 34.877C71.1712 34.877 69.3468 35.713 68.3665 36.4627C67.4727 35.6554 65.8086 34.877 63.3004 34.877C61.0804 34.877 59.495 35.367 57.9093 36.0013V50.7628H61.8302V38.7062C62.378 38.4756 62.6374 38.3313 63.5311 38.3313C65.2033 38.3313 66.4797 39.1297 66.4797 40.5129V50.7628L70.3901 50.7623V39.0708C70.9378 38.5807 71.5173 38.3313 72.4975 38.3313C74.0832 38.3313 75.0633 39.1966 75.0633 40.7243V50.7628H79.0133ZM93.8536 49.8801V35.1197H89.9432V47.4296C89.5107 47.6026 88.8955 47.7754 87.8864 47.7754C86.1566 47.7754 85.2628 46.9971 85.2628 45.3248V35.1197H81.3418V45.2383C81.3418 49.274 83.5906 51.0046 87.8864 51.0046C90.3082 51.0046 92.4986 50.5433 93.8536 49.8801Z" fill="black"/>
<path fill-rule="evenodd" clip-rule="evenodd" d="M73.9812 16.0525C74.9208 15.1126 74.448 13.1155 72.0768 10.7442C69.7051 8.3727 65.7138 7.14067 65.3916 7.46271C65.0799 7.77444 66.3016 11.7761 68.6732 14.1476C69.4437 14.9183 70.1749 15.4881 70.843 15.8746C70.0941 15.6722 69.1676 15.5562 68.0684 15.5562C64.7146 15.5562 61.0214 17.5075 61.0214 17.9631C61.0214 18.4041 64.7146 20.3697 68.0684 20.3697C69.1582 20.3697 70.0781 20.2558 70.8237 20.0565C70.1512 20.4431 69.4142 21.0162 68.6372 21.7932C66.2655 24.1648 65.0336 28.1561 65.3556 28.4784C65.6675 28.7902 69.669 27.5684 72.0405 25.1967C72.8113 24.4261 73.3813 23.695 73.7675 23.0267C73.5652 23.7757 73.4494 24.7022 73.4494 25.8015C73.4494 29.1553 75.4004 32.8488 75.8558 32.8488C76.2969 32.8488 78.2625 29.1553 78.2625 25.8015C78.2625 24.7115 78.1486 23.7917 77.9494 23.046C78.3358 23.7186 78.909 24.4556 79.6862 25.2327C82.0578 27.6044 86.0492 28.8363 86.3712 28.5143C86.6832 28.2024 85.4612 24.2011 83.0895 21.8293C82.3189 21.0586 81.5879 20.4886 80.9197 20.1024C81.6687 20.3047 82.5953 20.4205 83.6944 20.4205C87.048 20.4205 90.7418 18.4694 90.7418 18.0139C90.7418 17.5728 87.048 15.6074 83.6944 15.6074C82.6047 15.6074 81.6846 15.7211 80.939 15.9204C81.6116 15.534 82.3486 14.9609 83.1257 14.1837C85.4974 11.812 86.7293 7.82084 86.4071 7.49878C86.0953 7.18665 82.0938 8.40877 79.7221 10.7803C77.3509 13.1518 76.8779 15.1487 77.8176 16.0883C78.2304 16.5013 78.8476 16.6414 79.6109 16.4675C78.9374 16.8858 78.5942 17.4252 78.5942 18.0139C78.5942 18.598 78.9316 19.1333 79.5944 19.5501C78.8221 19.3694 78.1979 19.5081 77.7816 19.9246C77.3688 20.3376 77.2289 20.9547 77.4025 21.7179C76.9842 21.0441 76.4447 20.7012 75.8558 20.7012C75.2719 20.7012 74.7364 21.0386 74.3198 21.7013C74.5004 20.9291 74.3614 20.305 73.945 19.8887C73.5323 19.4758 72.9154 19.3356 72.1523 19.5094C72.8259 19.0911 73.1689 18.5518 73.1689 17.9631C73.1689 17.3792 72.8316 16.8437 72.1688 16.4269C72.9409 16.6074 73.5649 16.4687 73.9812 16.0525ZM75.8814 12.1475C77.2104 12.1475 78.2882 10.4013 78.2882 7.04735C78.2882 3.69342 76.337 0 75.8814 0C75.4403 0 73.475 3.69342 73.475 7.04735C73.475 10.4013 74.5527 12.1475 75.8814 12.1475Z" fill="black"/>
</g>
<defs>
<clipPath id="clip0_944_10030">
<rect width="93.8537" height="52" fill="white"/>
</clipPath>
</defs>
</svg>
