<svg width="95" height="52" viewBox="0 0 95 52" fill="none" xmlns="http://www.w3.org/2000/svg">
<g clip-path="url(#clip0_3356_2831)">
<path d="M6.63855 47.2681C5.69491 47.1768 4.24715 47.1444 4.24715 45.6768V27.2988H0.33667V46.04C0.33667 48.0387 1.48128 51.063 5.75029 50.8084L6.63855 47.2681ZM17.6927 47.6499C17.2892 47.8226 16.3092 47.9669 15.4729 47.9669C13.4258 47.9669 12.1895 47.1286 12.1244 45.9203C12.0209 44.0012 14.6865 43.4046 17.6927 43.7639V47.6499ZM21.412 49.9264V40.3545C21.412 36.376 19.192 34.819 15.2135 34.819C12.9646 34.819 10.4266 35.4805 9.1293 36.0281L10.0778 39.144C11.1732 38.6829 13.2999 38.1347 14.7703 38.1347C16.558 38.1347 17.6927 38.4353 17.6927 40.0492V40.5823C12.7335 40.244 8.17601 41.6383 8.18485 45.8763C8.19236 49.395 10.9176 51.0508 15.5881 51.0508C17.9236 51.0508 20.2588 50.5319 21.412 49.9264ZM35.5332 50.763V47.4122H28.1496L35.5317 38.136L35.5309 35.1225H23.804L23.8046 38.4059H30.665L23.8054 47.5722V50.763H35.5332ZM42.0443 31.3703C42.0443 30.1881 41.0353 29.1069 39.7955 29.1069C38.5558 29.1069 37.5467 30.1881 37.5467 31.3703C37.5467 32.5525 38.4607 33.5358 39.7955 33.5358C41.1147 33.5358 42.0443 32.5525 42.0443 31.3703ZM41.7561 50.763V35.1225H37.835V50.763H41.7561ZM56.0868 46.2361C56.0868 43.0935 53.372 42.1211 51.1996 41.375C49.5176 40.7974 48.189 40.2816 48.3892 39.239C48.5036 38.6432 49.2113 38.0466 50.9336 38.0688C52.0342 38.083 53.585 38.429 54.2883 38.8326L55.6281 35.9434C54.3741 35.3092 52.6615 34.819 50.5515 34.819C46.698 34.819 44.3859 36.8202 44.3859 39.559C44.3859 42.6152 46.9573 43.7037 49.0403 44.4146C50.5045 44.9141 51.9096 45.1868 51.9096 46.34C51.9096 47.3779 50.8758 47.7812 49.3774 47.7812C48.1847 47.7812 46.3498 47.2623 45.524 46.7721L44.0682 49.9264C45.2916 50.5319 47.3404 51.0508 49.3893 51.0508C53.7929 51.0508 56.0868 49.148 56.0868 46.2361Z" fill="#222222"/>
<path d="M79.35 50.7631V40.0091C79.35 36.8665 77.274 34.8772 73.8433 34.8772C71.5079 34.8772 69.6834 35.7133 68.7032 36.4629C67.8094 35.6557 66.1453 34.8772 63.6371 34.8772C61.4171 34.8772 59.8317 35.3673 58.246 36.0015V50.7631H62.1669V38.7064C62.7147 38.4759 62.974 38.3315 63.8678 38.3315C65.5399 38.3315 66.8163 39.1299 66.8163 40.5131V50.7631L70.7267 50.7626V39.0711C71.2745 38.581 71.854 38.3315 72.8341 38.3315C74.4199 38.3315 75.4 39.1969 75.4 40.7245V50.7631H79.35ZM94.1903 49.8803V35.1199H90.2799V47.4299C89.8474 47.6029 89.2321 47.7756 88.2231 47.7756C86.4933 47.7756 85.5995 46.9974 85.5995 45.325V35.1199H81.6784V45.2385C81.6784 49.2742 83.9272 51.0048 88.2231 51.0048C90.6449 51.0048 92.8352 50.5435 94.1903 49.8803Z" fill="#F68F28"/>
<path fill-rule="evenodd" clip-rule="evenodd" d="M74.3178 16.0525C75.2575 15.1126 74.7847 13.1155 72.4135 10.7442C70.0418 8.3727 66.0505 7.14067 65.7283 7.46271C65.4166 7.77444 66.6383 11.7761 69.0099 14.1476C69.7804 14.9183 70.5116 15.4881 71.1797 15.8746C70.4308 15.6722 69.5043 15.5562 68.405 15.5562C65.0513 15.5562 61.358 17.5075 61.358 17.9631C61.358 18.4041 65.0513 20.3697 68.405 20.3697C69.4949 20.3697 70.4148 20.2558 71.1604 20.0565C70.4878 20.4431 69.7508 21.0162 68.9739 21.7932C66.6022 24.1648 65.3703 28.1561 65.6923 28.4784C66.0042 28.7902 70.0056 27.5684 72.3772 25.1967C73.148 24.4261 73.7179 23.695 74.1041 23.0267C73.9018 23.7757 73.786 24.7022 73.786 25.8015C73.786 29.1553 75.737 32.8488 76.1925 32.8488C76.6336 32.8488 78.5992 29.1553 78.5992 25.8015C78.5992 24.7115 78.4853 23.7917 78.2861 23.046C78.6725 23.7186 79.2457 24.4556 80.0229 25.2327C82.3944 27.6044 86.3859 28.8363 86.7079 28.5143C87.0199 28.2024 85.7979 24.2011 83.4262 21.8293C82.6556 21.0586 81.9245 20.4886 81.2564 20.1024C82.0053 20.3047 82.9319 20.4205 84.031 20.4205C87.3847 20.4205 91.0784 18.4694 91.0784 18.0139C91.0784 17.5728 87.3847 15.6074 84.031 15.6074C82.9413 15.6074 82.0213 15.7211 81.2757 15.9204C81.9483 15.534 82.6853 14.9609 83.4623 14.1837C85.834 11.812 87.0659 7.82084 86.7438 7.49878C86.4319 7.18665 82.4305 8.40877 80.0588 10.7803C77.6876 13.1518 77.2146 15.1487 78.1543 16.0883C78.5671 16.5013 79.1843 16.6414 79.9475 16.4675C79.2741 16.8858 78.9309 17.4252 78.9309 18.0139C78.9309 18.598 79.2682 19.1333 79.931 19.5501C79.1588 19.3694 78.5345 19.5081 78.1183 19.9246C77.7054 20.3376 77.5655 20.9547 77.7392 21.7179C77.3209 21.0441 76.7814 20.7012 76.1925 20.7012C75.6086 20.7012 75.0731 21.0386 74.6565 21.7013C74.8371 20.9291 74.6981 20.305 74.2817 19.8887C73.869 19.4758 73.2521 19.3356 72.489 19.5094C73.1625 19.0911 73.5056 18.5518 73.5056 17.9631C73.5056 17.3792 73.1683 16.8437 72.5054 16.4269C73.2776 16.6074 73.9016 16.4687 74.3178 16.0525ZM76.2181 12.1475C77.547 12.1475 78.6248 10.4013 78.6248 7.04735C78.6248 3.69342 76.6737 0 76.2181 0C75.777 0 73.8117 3.69342 73.8117 7.04735C73.8117 10.4013 74.8893 12.1475 76.2181 12.1475Z" fill="#F68F28"/>
</g>
<defs>
<clipPath id="clip0_3356_2831">
<rect width="93.8537" height="52" fill="white" transform="translate(0.33667)"/>
</clipPath>
</defs>
</svg>
