<svg width="188" height="40" viewBox="0 0 188 40" fill="none" xmlns="http://www.w3.org/2000/svg">
<g clip-path="url(#clip0_3356_2870)">
<path d="M66.2591 23.0387L65.1415 26.2015H65.0484C64.8621 25.4884 64.5207 24.4031 63.9619 23.1008L57.9706 8.062H52.1035V32.031H55.9838V17.2403C55.9838 16.3101 55.9838 15.2558 55.9528 13.9535C55.9217 13.3023 55.8597 12.8062 55.8286 12.4341H55.9217C56.108 13.3643 56.3253 14.0465 56.4805 14.4806L63.6825 31.969H66.4143L73.5542 14.3256C73.7094 13.9225 73.8646 13.1163 74.0198 12.4341H74.113C74.0198 14.2015 73.9578 15.7829 73.9267 16.7442V31.938H78.0554V7.99999H72.4056L66.2591 23.0387ZM81.9669 14.7597H86.0025V31.938H81.9669V14.7597ZM84.0157 7.50386C83.3328 7.50386 82.774 7.75192 82.3083 8.18603C81.8427 8.62014 81.5943 9.17828 81.5943 9.86045C81.5943 10.5116 81.8427 11.0698 82.3083 11.5039C82.774 11.938 83.3328 12.155 84.0157 12.155C84.6986 12.155 85.2885 11.907 85.7231 11.5039C86.1887 11.0698 86.4371 10.5116 86.4371 9.86045C86.4371 9.20929 86.1887 8.65115 85.7231 8.18603C85.3195 7.75192 84.7297 7.50386 84.0157 7.50386ZM100.313 14.6046C99.5683 14.4496 98.7922 14.3566 98.0472 14.3566C96.2156 14.3566 94.5393 14.7597 93.1424 15.5659C91.7454 16.3721 90.6279 17.4884 89.9139 18.8837C89.1688 20.3101 88.7963 21.9535 88.7963 23.8449C88.7963 25.4884 89.1688 26.9457 89.8828 28.2791C90.5968 29.5814 91.5902 30.6356 92.9251 31.3488C94.1978 32.062 95.6879 32.4341 97.3642 32.4341C99.2889 32.4341 100.934 32.031 102.238 31.2868L102.269 31.2558V27.5349L102.114 27.6589C101.524 28.093 100.841 28.4651 100.158 28.6822C99.4441 28.9302 98.7922 29.0542 98.2334 29.0542C96.6192 29.0542 95.3464 28.5891 94.4462 27.5659C93.5149 26.5736 93.0492 25.2093 93.0492 23.5039C93.0492 21.7364 93.5149 20.3411 94.4772 19.3178C95.4395 18.2946 96.7123 17.7674 98.2645 17.7674C99.5683 17.7674 100.903 18.2015 102.114 19.0698L102.269 19.1938V15.2558L102.238 15.2248C101.71 15.0077 101.12 14.7597 100.313 14.6046ZM113.631 14.4806C112.637 14.4806 111.706 14.7907 110.899 15.4418C110.216 16 109.75 16.8062 109.347 17.7674H109.316V14.7597H105.28V31.938H109.316V23.1628C109.316 21.6744 109.626 20.4341 110.309 19.5349C110.992 18.6046 111.861 18.1395 112.917 18.1395C113.289 18.1395 113.662 18.2325 114.127 18.2946C114.562 18.4186 114.872 18.5426 115.09 18.6977L115.245 18.8217V14.7907L115.152 14.7597C114.872 14.5736 114.314 14.4806 113.631 14.4806ZM124.62 14.3876C121.795 14.3876 119.529 15.2248 117.946 16.8682C116.332 18.5116 115.555 20.7752 115.555 23.6279C115.555 26.2946 116.363 28.4651 117.915 30.0465C119.467 31.5969 121.578 32.4031 124.216 32.4031C126.979 32.4031 129.183 31.5659 130.767 29.8915C132.381 28.217 133.157 25.9845 133.157 23.2248C133.157 20.4961 132.412 18.3256 130.891 16.7442C129.432 15.1628 127.29 14.3876 124.62 14.3876ZM127.848 27.5969C127.103 28.5581 125.924 29.0232 124.465 29.0232C123.006 29.0232 121.826 28.5581 120.988 27.5349C120.15 26.5736 119.746 25.1783 119.746 23.4108C119.746 21.5814 120.181 20.186 120.988 19.1938C121.826 18.2015 122.975 17.7054 124.434 17.7054C125.862 17.7054 126.979 18.1705 127.786 19.1318C128.594 20.093 129.028 21.4884 129.028 23.3178C128.966 25.1783 128.625 26.6356 127.848 27.5969ZM142.159 21.8915C140.887 21.3643 140.079 20.9612 139.707 20.6201C139.396 20.3101 139.241 19.876 139.241 19.3178C139.241 18.8527 139.428 18.3876 139.893 18.0775C140.359 17.7674 140.887 17.6124 141.663 17.6124C142.346 17.6124 143.06 17.7364 143.743 17.9225C144.425 18.1085 145.046 18.3876 145.543 18.7597L145.698 18.8837V15.1008L145.605 15.0698C145.139 14.8837 144.519 14.6977 143.774 14.5426C143.029 14.4186 142.346 14.3566 141.787 14.3566C139.862 14.3566 138.279 14.8217 137.037 15.8449C135.796 16.8062 135.206 18.1085 135.206 19.6279C135.206 20.4341 135.33 21.1473 135.609 21.7364C135.889 22.3256 136.292 22.8837 136.851 23.3488C137.41 23.7829 138.217 24.2791 139.334 24.7442C140.266 25.1473 140.98 25.4574 141.414 25.7054C141.849 25.9535 142.128 26.2325 142.346 26.4496C142.501 26.6977 142.594 27.0077 142.594 27.4108C142.594 28.5581 141.725 29.1163 139.955 29.1163C139.272 29.1163 138.558 28.9922 137.72 28.7132C136.882 28.4341 136.106 28.031 135.454 27.5659L135.299 27.4418V31.3798L135.392 31.4108C135.982 31.6899 136.696 31.876 137.565 32.093C138.434 32.248 139.21 32.3721 139.893 32.3721C141.973 32.3721 143.68 31.907 144.891 30.8837C146.133 29.8915 146.785 28.6201 146.785 26.9767C146.785 25.8294 146.474 24.8062 145.791 24.031C144.891 23.2868 143.774 22.5116 142.159 21.8915ZM157.432 14.3876C154.608 14.3876 152.341 15.2248 150.758 16.8682C149.175 18.5116 148.368 20.7752 148.368 23.6279C148.368 26.2946 149.175 28.4651 150.727 30.0465C152.279 31.5969 154.39 32.4031 157.029 32.4031C159.792 32.4031 161.996 31.5659 163.579 29.8915C165.193 28.217 165.969 25.9845 165.969 23.2248C165.969 20.4961 165.224 18.3256 163.703 16.7442C162.244 15.1628 160.102 14.3876 157.432 14.3876ZM160.63 27.5969C159.885 28.5581 158.705 29.0232 157.246 29.0232C155.756 29.0232 154.608 28.5581 153.769 27.5349C152.931 26.5736 152.528 25.1783 152.528 23.4108C152.528 21.5814 152.962 20.186 153.769 19.1938C154.608 18.2015 155.756 17.7054 157.215 17.7054C158.612 17.7054 159.761 18.1705 160.568 19.1318C161.375 20.093 161.81 21.4884 161.81 23.3178C161.81 25.1783 161.406 26.6356 160.63 27.5969ZM187.544 18.0775V14.7597H183.478V9.6744L183.353 9.70541L179.504 10.8527L179.411 10.8837V14.7597H173.327V12.5891C173.327 11.5969 173.575 10.8217 174.009 10.3256C174.444 9.82944 175.096 9.58138 175.903 9.58138C176.462 9.58138 177.052 9.70541 177.704 9.98448L177.859 10.0775V6.57363L177.766 6.54262C177.207 6.35657 176.462 6.23254 175.5 6.23254C174.289 6.23254 173.233 6.51161 172.271 6.97673C171.309 7.50386 170.595 8.21704 170.067 9.17828C169.539 10.1085 169.26 11.1628 169.26 12.3721V14.7597H166.435V18.0465H169.26V31.938H173.327V18.0775H179.411V26.9147C179.411 30.5426 181.118 32.3721 184.533 32.3721C185.092 32.3721 185.682 32.2791 186.24 32.186C186.83 32.062 187.265 31.907 187.513 31.7829L187.544 31.7519V28.4341L187.389 28.5581C187.141 28.7132 186.923 28.8372 186.551 28.9302C186.24 29.0232 185.961 29.0542 185.744 29.0542C184.937 29.0542 184.378 28.8682 183.974 28.4031C183.602 27.969 183.416 27.2558 183.416 26.2015V18.0775H187.544Z" fill="#737373"/>
<path d="M0.0753174 0H19.1047V19.0078H0.0753174V0Z" fill="#F25022"/>
<path d="M21.0915 0H40.1208V19.0078H21.0915V0Z" fill="#7FBA00"/>
<path d="M0.0753174 20.9922H19.1047V39.9999H0.0753174V20.9922Z" fill="#00A4EF"/>
<path d="M21.0915 20.9922H40.1208V39.9999H21.0915V20.9922Z" fill="#FFB900"/>
</g>
<defs>
<clipPath id="clip0_3356_2870">
<rect width="187.5" height="40" fill="white" transform="translate(0.0753174)"/>
</clipPath>
</defs>
</svg>
