<svg width="14" height="14" viewBox="0 0 14 14" fill="none" xmlns="http://www.w3.org/2000/svg">
<path d="M0.62505 13.8559C0.497505 13.8559 0.376319 13.8049 0.287038 13.7156C0.16587 13.5945 0.114883 13.416 0.159524 13.2502L0.963063 10.2472C0.427374 9.25258 0.146757 8.13044 0.146757 6.99555C0.146757 3.21472 3.22059 0.141602 7.0023 0.141602C10.784 0.141602 13.8578 3.21472 13.8578 6.99555C13.8578 10.7764 10.784 13.8495 7.0023 13.8495C5.84802 13.8495 4.71926 13.5626 3.71166 13.0143L0.752603 13.8368C0.707962 13.8495 0.669691 13.8559 0.62505 13.8559ZM3.77541 12.026C3.85832 12.026 3.94122 12.0516 4.01775 12.0898C4.91694 12.619 5.95005 12.8995 7.0023 12.8995C10.2547 12.8995 12.9013 10.2536 12.9013 7.00194C12.9013 3.75029 10.2547 1.10435 7.0023 1.10435C3.7499 1.10435 1.10334 3.75029 1.10334 7.00194C1.10334 8.04119 1.37756 9.05493 1.89412 9.94754C1.95789 10.0559 1.97703 10.1898 1.94515 10.311L1.30742 12.6955L3.65424 12.0452C3.69251 12.0324 3.73715 12.026 3.77541 12.026Z" fill="#101828"/>
<path d="M8.63178 10.4275C8.26273 10.4275 7.88179 10.3442 7.48298 10.1718C7.10798 10.0113 6.73298 9.79725 6.36989 9.52971C6.01274 9.26812 5.66157 8.97085 5.34014 8.6498C5.01871 8.32281 4.72107 7.97799 4.45916 7.62128C4.19131 7.24672 3.97702 6.8781 3.82226 6.51544C3.65559 6.12305 3.57227 5.73661 3.57227 5.368C3.57227 5.10641 3.61987 4.85671 3.70916 4.62484C3.8044 4.38109 3.95916 4.16111 4.16154 3.97086C4.5425 3.5963 5.09014 3.45957 5.52466 3.66766C5.67347 3.73306 5.79847 3.84007 5.8937 3.98276L6.58416 4.95183C6.65559 5.04695 6.70918 5.14802 6.75085 5.24909C6.79847 5.368 6.82823 5.48692 6.82823 5.59988C6.82823 5.75446 6.78655 5.90904 6.70322 6.04578C6.64965 6.13496 6.57226 6.24197 6.47107 6.34304L6.39368 6.42627C6.4294 6.47383 6.47106 6.53327 6.53653 6.60462C6.66153 6.7473 6.79844 6.90188 6.94725 7.05051C7.09606 7.1932 7.24487 7.33589 7.39368 7.46074C7.46511 7.52019 7.52466 7.56776 7.57228 7.59749L7.65558 7.51425C7.76273 7.40723 7.86989 7.32401 7.97703 7.27051C8.17346 7.14565 8.47702 7.11592 8.74488 7.22888C8.84012 7.26456 8.93535 7.31806 9.03654 7.3894L10.0306 8.09094C10.1675 8.18607 10.2746 8.31687 10.3461 8.4655C10.4056 8.61413 10.4294 8.74493 10.4294 8.88168C10.4294 9.06003 10.3877 9.23244 10.3104 9.39891C10.233 9.55349 10.1437 9.69024 10.0365 9.81509C9.84606 10.0232 9.62584 10.1778 9.38774 10.2788C9.14965 10.3799 8.89368 10.4275 8.63178 10.4275ZM5.09011 4.47026C5.0544 4.47026 4.93538 4.47026 4.78657 4.61889C4.67348 4.72591 4.59608 4.83888 4.5425 4.96373C4.48893 5.08858 4.46512 5.23127 4.46512 5.37396C4.46512 5.62366 4.52464 5.89118 4.64369 6.17656C4.76868 6.47382 4.95322 6.78894 5.17941 7.10404C5.41156 7.41914 5.67346 7.73423 5.96513 8.02555C6.2568 8.31093 6.56631 8.57846 6.88774 8.81627C7.19726 9.04219 7.51275 9.22055 7.82823 9.35729C8.28061 9.55349 8.69725 9.60106 9.03654 9.45837C9.15558 9.41081 9.26273 9.32758 9.36987 9.22056C9.42344 9.16111 9.46513 9.10165 9.50084 9.02436C9.5187 8.98274 9.53059 8.93518 9.53059 8.89356C9.53059 8.88167 9.53058 8.86384 9.51272 8.82817L8.51868 8.13851C8.47702 8.10879 8.43534 8.085 8.39963 8.07311C8.37582 8.085 8.34013 8.10283 8.27465 8.16823L8.04846 8.39416C7.87584 8.56657 7.60204 8.61413 7.3818 8.53684L7.27466 8.48928C7.13775 8.41794 6.98298 8.31093 6.81036 8.1623C6.64369 8.01961 6.483 7.87097 6.31038 7.7045C6.14371 7.53209 5.99489 7.37157 5.85203 7.2051C5.69727 7.02079 5.59013 6.87217 5.5187 6.74732L5.45324 6.59273C5.43538 6.53328 5.4294 6.46788 5.4294 6.40843C5.4294 6.24196 5.48895 6.09332 5.60204 5.97442L5.82824 5.74256C5.89371 5.67716 5.91751 5.6415 5.92942 5.61772C5.91156 5.5761 5.88775 5.54042 5.85799 5.4988L5.16154 4.51783L5.09011 4.47026Z" fill="#101828"/>
</svg>
